<svg xmlns="http://www.w3.org/2000/svg" width="1588" height="660" viewBox="0 0 1588 660">
<g>
<path d="M 1588.00,660.00 L 0.00,660.00 L 0.00,0.00 L 1588.00,0.00 M 282.76,265.05 L 279.89,265.10 L 278.65,265.23 L 276.28,265.55 L 275.08,265.83 L 272.64,266.47 L 271.19,266.94 L 266.18,268.90 L 263.13,270.47 L 261.74,271.38 L 259.06,273.29 L 257.86,274.38 L 255.55,276.63 L 254.54,277.88 L 252.62,280.48 L 251.80,281.90 L 250.26,284.84 L 249.63,286.43 L 248.47,289.70 L 248.03,291.46 L 247.26,295.07 L 247.01,297.00 L 246.80,299.15 L 246.67,300.93 L 246.61,301.96 L 246.50,304.12 L 246.45,305.33 L 246.36,307.82 L 246.32,309.17 L 246.18,314.81 L 246.14,317.90 L 246.08,324.20 L 246.08,327.43 L 246.09,333.91 L 246.12,337.04 L 246.21,343.21 L 246.28,346.02 L 246.36,348.77 L 246.41,350.04 L 246.50,352.52 L 246.56,353.63 L 246.67,355.78 L 246.74,356.70 L 246.87,358.45 L 246.95,359.16 L 247.48,363.09 L 247.94,365.54 L 248.22,366.68 L 249.51,371.09 L 250.41,373.05 L 252.37,376.82 L 253.64,378.54 L 256.37,381.88 L 258.05,383.45 L 262.36,387.00 L 265.30,388.93 L 266.84,389.69 L 269.99,391.09 L 271.69,391.61 L 275.19,392.55 L 277.12,392.87 L 278.94,393.17 L 279.73,393.29 L 281.25,393.51 L 281.93,393.59 L 284.45,393.82 L 285.61,393.82 L 287.92,393.74 L 289.25,393.58 L 290.61,393.41 L 291.39,393.29 L 292.99,393.03 L 293.92,392.87 L 298.59,391.84 L 301.52,390.95 L 302.89,390.41 L 305.57,389.26 L 306.82,388.58 L 309.26,387.17 L 310.39,386.35 L 312.59,384.66 L 313.60,383.71 L 315.57,381.74 L 316.47,380.65 L 318.21,378.41 L 318.99,377.18 L 320.51,374.65 L 321.18,373.28 L 322.91,369.47 L 323.70,367.26 L 323.95,366.11 L 324.39,363.71 L 324.52,362.22 L 324.65,360.67 L 324.70,359.77 L 324.79,357.91 L 324.84,356.83 L 325.23,347.00 L 303.21,347.00 L 302.85,354.93 L 302.64,357.96 L 302.44,359.75 L 302.30,360.53 L 301.98,362.05 L 301.77,362.72 L 301.31,364.02 L 301.02,364.61 L 299.68,366.81 L 298.69,367.80 L 296.50,369.74 L 295.01,370.75 L 293.16,371.81 L 291.88,372.33 L 291.18,372.51 L 289.71,372.81 L 288.86,372.89 L 287.07,373.00 L 286.00,373.00 L 281.63,372.58 L 279.03,371.86 L 277.86,371.26 L 275.60,369.91 L 274.56,368.98 L 272.54,366.96 L 271.59,365.68 L 270.92,364.66 L 270.56,363.90 L 270.41,363.40 L 270.14,362.28 L 270.03,361.51 L 269.83,359.81 L 269.75,358.64 L 269.61,356.10 L 269.56,354.42 L 269.50,352.68 L 269.48,351.69 L 269.44,349.64 L 269.42,348.48 L 269.38,346.09 L 269.36,344.75 L 269.33,341.99 L 269.31,340.45 L 269.28,337.28 L 269.26,335.54 L 269.23,331.94 L 269.21,329.96 L 269.16,324.40 L 269.14,321.03 L 269.13,319.50 L 269.11,316.53 L 269.10,315.20 L 269.09,312.61 L 269.09,311.46 L 269.10,309.22 L 269.10,308.23 L 269.12,306.31 L 269.13,305.46 L 269.19,302.35 L 269.25,301.14 L 269.38,298.96 L 269.48,298.12 L 269.69,296.61 L 269.83,296.02 L 270.48,294.02 L 270.97,293.06 L 273.34,289.60 L 275.28,287.88 L 276.49,287.28 L 279.06,286.25 L 280.65,285.97 L 282.29,285.72 L 283.19,285.65 L 285.05,285.54 L 286.08,285.53 L 289.63,285.61 L 291.42,285.80 L 292.14,286.00 L 293.52,286.46 L 294.18,286.84 L 295.52,287.69 L 296.31,288.29 L 299.45,291.04 L 300.89,292.87 L 301.37,293.96 L 301.81,295.08 L 301.99,295.73 L 302.31,297.07 L 302.43,297.84 L 302.66,299.46 L 302.76,300.40 L 302.92,302.36 L 303.00,303.50 L 303.50,311.50 L 324.50,311.50 L 324.50,301.50 L 324.40,297.15 L 324.23,294.53 L 324.09,293.35 L 323.76,291.04 L 323.53,289.99 L 323.02,287.93 L 322.69,286.97 L 321.97,285.10 L 321.53,284.20 L 320.58,282.44 L 320.01,281.58 L 318.82,279.87 L 318.12,279.01 L 316.64,277.27 L 315.80,276.38 L 313.08,273.74 L 311.23,272.18 L 310.28,271.50 L 308.35,270.21 L 307.34,269.65 L 305.29,268.59 L 304.20,268.15 L 301.97,267.32 L 300.78,266.98 L 298.34,266.36 L 297.03,266.12 L 294.33,265.68 L 292.88,265.53 L 289.89,265.27 L 288.27,265.20 L 285.29,265.09 L 283.54,265.05 M 461.14,264.78 L 459.64,264.89 L 456.67,265.19 L 455.21,265.45 L 452.32,266.04 L 450.92,266.45 L 448.15,267.34 L 446.83,267.91 L 444.24,269.11 L 443.03,269.83 L 440.66,271.35 L 439.57,272.23 L 437.46,274.07 L 436.52,275.11 L 434.35,277.67 L 433.12,279.31 L 432.60,280.13 L 430.76,283.41 L 430.17,285.24 L 429.63,287.10 L 429.43,288.12 L 429.07,290.22 L 428.94,291.38 L 428.73,293.79 L 428.68,295.13 L 428.60,297.93 L 428.60,299.50 L 428.68,303.95 L 428.83,306.58 L 428.96,307.76 L 429.25,310.03 L 429.47,311.06 L 429.94,313.06 L 430.26,313.99 L 430.94,315.80 L 431.37,316.66 L 432.29,318.37 L 432.85,319.22 L 434.03,320.91 L 434.74,321.78 L 436.22,323.53 L 437.08,324.47 L 440.93,328.09 L 443.91,330.33 L 445.76,331.45 L 447.67,332.58 L 448.74,333.16 L 450.96,334.33 L 452.20,334.95 L 454.78,336.20 L 456.23,336.87 L 459.23,338.23 L 460.90,338.97 L 465.87,341.28 L 468.75,342.76 L 469.98,343.48 L 472.32,344.93 L 473.30,345.65 L 475.13,347.09 L 475.87,347.83 L 477.24,349.32 L 477.77,350.09 L 478.72,351.66 L 479.05,352.49 L 479.62,354.18 L 479.77,355.09 L 480.00,356.94 L 480.00,357.94 L 479.70,361.12 L 479.22,363.11 L 478.85,364.02 L 478.02,365.79 L 477.48,366.58 L 476.33,368.11 L 475.65,368.78 L 474.21,370.04 L 473.39,370.56 L 471.69,371.52 L 470.75,371.88 L 468.82,372.52 L 467.77,372.71 L 465.63,372.99 L 464.50,372.99 L 461.31,372.75 L 459.35,372.34 L 458.45,372.03 L 456.71,371.31 L 455.93,370.84 L 454.42,369.83 L 453.76,369.21 L 452.50,367.91 L 451.97,367.15 L 450.97,365.57 L 450.57,364.68 L 449.84,362.83 L 449.57,361.81 L 449.13,359.70 L 449.01,358.56 L 448.50,353.50 L 437.60,353.21 L 426.70,352.93 L 427.35,360.63 L 428.31,366.89 L 429.34,370.79 L 430.06,372.60 L 431.62,376.12 L 432.60,377.73 L 434.70,380.86 L 435.94,382.28 L 437.65,383.94 L 439.03,385.07 L 439.82,385.63 L 443.22,387.83 L 445.14,388.82 L 449.06,390.69 L 451.02,391.41 L 452.96,392.08 L 453.90,392.33 L 455.74,392.80 L 456.59,392.94 L 458.32,393.23 L 459.07,393.34 L 460.50,393.55 L 461.13,393.62 L 463.51,393.82 L 464.64,393.80 L 466.95,393.65 L 468.36,393.44 L 469.84,393.21 L 470.69,393.06 L 472.48,392.73 L 473.53,392.53 L 478.44,391.31 L 481.49,390.27 L 482.89,389.64 L 485.63,388.29 L 486.88,387.50 L 489.32,385.85 L 490.42,384.90 L 492.55,382.94 L 493.50,381.84 L 495.33,379.56 L 496.14,378.30 L 497.67,375.71 L 498.32,374.30 L 499.55,371.39 L 500.06,369.82 L 501.03,366.09 L 501.52,363.46 L 501.68,362.10 L 502.09,356.57 L 501.98,353.83 L 501.81,351.11 L 501.65,349.79 L 501.27,347.20 L 501.00,345.97 L 500.41,343.59 L 500.05,342.50 L 499.26,340.41 L 498.79,339.50 L 496.85,336.09 L 495.47,334.04 L 494.69,333.09 L 493.06,331.25 L 492.09,330.36 L 490.05,328.61 L 488.83,327.73 L 486.24,325.98 L 484.70,325.06 L 481.42,323.19 L 479.48,322.18 L 475.37,320.10 L 472.95,318.95 L 470.47,317.77 L 469.13,317.15 L 466.39,315.88 L 464.91,315.20 L 461.07,313.33 L 458.87,312.12 L 457.93,311.51 L 456.17,310.30 L 455.43,309.68 L 454.06,308.42 L 453.51,307.76 L 452.49,306.42 L 452.11,305.70 L 451.42,304.22 L 451.18,303.41 L 450.77,301.76 L 450.66,300.85 L 450.50,298.97 L 450.50,297.93 L 450.86,293.73 L 451.50,291.49 L 452.06,290.60 L 453.35,288.93 L 454.28,288.24 L 456.35,286.94 L 457.72,286.36 L 461.06,285.35 L 463.33,285.06 L 464.49,285.11 L 466.82,285.33 L 468.02,285.64 L 470.43,286.37 L 471.67,286.94 L 474.73,288.70 L 476.27,290.08 L 476.83,290.93 L 477.83,292.76 L 478.17,293.93 L 478.76,296.43 L 478.95,298.00 L 479.50,302.50 L 489.10,302.78 L 493.57,302.84 L 495.87,302.79 L 496.72,302.71 L 498.23,302.51 L 498.72,302.36 L 499.53,302.02 L 499.71,301.78 L 500.13,300.59 L 500.27,299.36 L 500.28,298.59 L 500.26,296.94 L 500.19,296.00 L 500.02,294.08 L 499.89,293.07 L 499.23,288.94 L 498.76,287.05 L 498.27,285.22 L 498.01,284.42 L 497.45,282.92 L 497.16,282.35 L 494.97,278.85 L 493.24,276.69 L 492.25,275.71 L 490.21,273.81 L 489.08,272.95 L 486.76,271.30 L 485.52,270.58 L 482.97,269.19 L 481.63,268.60 L 478.90,267.48 L 477.48,267.02 L 474.61,266.18 L 473.14,265.86 L 470.18,265.29 L 468.68,265.11 L 465.66,264.82 L 464.15,264.78 M 619.76,369.17 L 616.80,369.18 L 615.21,369.18 L 611.93,369.20 L 610.17,369.20 L 606.55,369.23 L 604.62,369.24 L 565.50,369.50 L 565.21,380.42 L 565.16,383.21 L 565.14,384.85 L 565.15,385.57 L 565.20,388.16 L 565.28,389.08 L 565.47,390.70 L 565.63,391.20 L 565.98,392.00 L 566.21,392.15 L 566.69,392.27 L 567.31,392.33 L 568.79,392.43 L 569.86,392.48 L 572.22,392.57 L 573.68,392.60 L 576.76,392.67 L 578.54,392.70 L 582.22,392.76 L 584.25,392.78 L 588.39,392.82 L 590.59,392.83 L 599.68,392.87 L 604.38,392.87 L 613.80,392.85 L 618.26,392.81 L 622.66,392.77 L 624.72,392.75 L 628.75,392.69 L 630.59,392.66 L 634.12,392.59 L 635.65,392.55 L 638.55,392.47 L 639.72,392.42 L 641.84,392.32 L 642.57,392.26 L 643.78,392.15 L 644.00,392.09 L 645.43,391.51 L 646.00,390.87 L 646.14,390.20 L 646.26,389.46 L 646.29,388.96 L 646.33,387.87 L 646.33,387.17 L 646.31,385.66 L 646.29,384.71 L 646.23,382.69 L 646.19,381.47 L 645.98,377.52 L 645.78,375.10 L 645.65,374.09 L 645.39,372.21 L 645.25,371.55 L 644.95,370.44 L 644.81,370.27 L 644.11,369.92 L 643.22,369.73 L 642.53,369.65 L 640.96,369.50 L 639.89,369.44 L 637.53,369.33 L 636.01,369.29 L 632.74,369.22 L 630.73,369.20 L 628.64,369.19 L 627.50,369.18 L 625.14,369.17 L 623.85,369.17 L 621.20,369.17 M 522.00,391.07 L 532.75,390.78 L 543.50,390.50 L 543.50,267.50 L 522.00,266.93 M 346.00,267.00 L 346.00,391.00 L 410.00,391.00 L 410.00,371.00 L 368.00,371.00 L 368.00,338.05 L 403.50,337.50 L 403.79,328.58 L 403.86,324.42 L 403.80,322.29 L 403.72,321.52 L 403.53,320.15 L 403.37,319.71 L 403.03,319.00 L 402.79,318.85 L 402.19,318.68 L 401.47,318.58 L 400.97,318.53 L 399.87,318.43 L 399.20,318.39 L 397.78,318.30 L 396.96,318.27 L 393.42,318.13 L 391.36,318.09 L 387.05,318.02 L 384.75,318.02 L 368.00,318.00 L 368.00,287.04 L 409.50,286.50 L 409.79,276.75 L 410.07,267.00 M 680.87,280.00 L 676.65,280.03 L 674.18,280.08 L 673.19,280.11 L 671.41,280.18 L 670.86,280.23 L 670.37,280.27 L 670.22,280.30 L 670.00,280.35 L 670.00,280.37 L 670.36,280.98 L 670.94,281.90 L 671.39,282.59 L 672.38,284.11 L 673.01,285.07 L 674.37,287.13 L 675.16,288.34 L 676.83,290.86 L 677.76,292.27 L 679.70,295.18 L 680.75,296.75 L 682.90,299.98 L 684.04,301.69 L 686.36,305.16 L 687.57,306.96 L 691.09,312.26 L 693.32,315.64 L 694.35,317.24 L 696.38,320.36 L 697.29,321.80 L 699.06,324.58 L 699.83,325.82 L 701.30,328.20 L 701.91,329.20 L 703.04,331.09 L 703.45,331.82 L 704.18,333.15 L 704.39,333.58 L 704.68,334.26 L 704.64,334.34 L 704.17,335.12 L 703.49,336.14 L 702.99,336.88 L 701.89,338.51 L 701.20,339.53 L 699.73,341.69 L 698.87,342.94 L 697.07,345.56 L 696.07,347.01 L 694.00,350.01 L 692.89,351.62 L 690.60,354.92 L 689.40,356.65 L 686.95,360.18 L 685.68,362.00 L 681.97,367.34 L 679.63,370.75 L 678.54,372.35 L 676.41,375.48 L 675.45,376.92 L 673.58,379.70 L 672.76,380.94 L 671.21,383.29 L 670.57,384.29 L 669.38,386.15 L 668.94,386.87 L 668.16,388.16 L 667.95,388.56 L 667.63,389.20 L 667.66,389.25 L 668.06,389.45 L 668.62,389.54 L 669.96,389.71 L 670.89,389.78 L 672.94,389.90 L 674.14,389.94 L 676.66,390.00 L 687.94,390.00 L 691.81,384.75 L 692.80,383.38 L 693.64,382.21 L 694.14,381.51 L 695.19,380.03 L 695.78,379.20 L 696.99,377.48 L 697.64,376.55 L 700.37,372.66 L 701.83,370.57 L 704.78,366.32 L 706.23,364.22 L 716.79,348.95 L 719.73,352.72 L 720.52,353.78 L 721.22,354.74 L 721.64,355.33 L 722.54,356.59 L 723.05,357.31 L 724.10,358.81 L 724.68,359.64 L 727.10,363.12 L 728.42,365.04 L 731.10,368.96 L 732.44,370.95 L 736.36,376.74 L 738.79,380.30 L 739.82,381.82 L 740.82,383.28 L 741.26,383.92 L 742.10,385.14 L 742.44,385.65 L 743.09,386.58 L 743.32,386.92 L 743.74,387.51 L 743.85,387.67 L 745.02,388.91 L 746.01,389.44 L 746.80,389.59 L 747.65,389.73 L 748.18,389.78 L 749.33,389.86 L 750.03,389.89 L 751.55,389.94 L 752.47,389.95 L 754.42,389.96 L 755.58,389.97 L 759.55,389.93 L 761.92,389.86 L 762.89,389.81 L 764.66,389.69 L 765.25,389.62 L 766.20,389.46 L 766.29,389.38 L 766.19,388.65 L 765.80,387.75 L 765.47,387.14 L 764.72,385.82 L 764.24,385.06 L 763.22,383.47 L 762.63,382.63 L 761.60,381.15 L 760.78,379.97 L 760.31,379.30 L 758.30,376.42 L 757.16,374.78 L 752.31,367.80 L 750.02,364.50 L 746.29,359.12 L 743.60,355.26 L 742.27,353.34 L 739.65,349.56 L 738.47,347.86 L 737.31,346.20 L 736.79,345.44 L 735.78,343.99 L 735.35,343.36 L 732.88,339.76 L 731.44,337.61 L 730.86,336.73 L 729.82,335.10 L 729.50,334.56 L 729.21,334.08 L 729.13,333.91 L 729.00,333.65 L 729.00,333.60 L 729.36,332.94 L 729.94,331.99 L 730.38,331.29 L 731.37,329.74 L 732.00,328.76 L 733.35,326.67 L 734.14,325.46 L 735.80,322.91 L 736.74,321.49 L 738.66,318.56 L 739.71,316.98 L 741.85,313.74 L 742.99,312.03 L 745.30,308.55 L 746.50,306.74 L 764.01,280.50 L 753.25,280.21 L 750.01,280.13 L 748.20,280.11 L 747.45,280.11 L 746.05,280.13 L 745.48,280.16 L 744.43,280.23 L 744.01,280.28 L 742.58,280.57 L 742.12,280.83 L 741.34,281.43 L 741.00,281.86 L 740.48,282.58 L 739.95,283.37 L 739.59,283.89 L 738.83,285.03 L 738.37,285.72 L 737.41,287.16 L 736.87,287.98 L 734.54,291.51 L 733.21,293.54 L 730.47,297.74 L 729.03,299.96 L 724.87,306.32 L 723.58,308.26 L 722.98,309.15 L 721.81,310.89 L 721.28,311.67 L 720.26,313.16 L 719.82,313.80 L 718.98,314.99 L 718.64,315.46 L 718.02,316.31 L 717.80,316.59 L 717.43,317.06 L 717.35,317.13 L 716.72,317.45 L 716.31,317.45 L 716.11,317.34 L 715.70,317.04 L 715.49,316.77 L 715.05,316.14 L 714.82,315.71 L 714.33,314.88 L 713.80,314.02 L 713.45,313.46 L 712.68,312.23 L 712.22,311.50 L 711.24,309.97 L 710.69,309.11 L 708.32,305.41 L 706.95,303.30 L 704.12,298.93 L 702.62,296.64 L 691.74,280.00 Z" fill="rgb(0,0,0)"/>
<path d="M 285.29,265.09 L 288.27,265.20 L 289.89,265.27 L 292.88,265.53 L 294.33,265.68 L 297.03,266.12 L 298.34,266.36 L 300.78,266.98 L 301.97,267.32 L 304.20,268.15 L 305.29,268.59 L 307.34,269.65 L 308.35,270.21 L 310.28,271.50 L 311.23,272.18 L 313.08,273.74 L 315.80,276.38 L 316.64,277.27 L 318.12,279.01 L 318.82,279.87 L 320.01,281.58 L 320.58,282.44 L 321.53,284.20 L 321.97,285.10 L 322.69,286.97 L 323.02,287.93 L 323.53,289.99 L 323.76,291.04 L 324.09,293.35 L 324.23,294.53 L 324.40,297.15 L 324.50,301.50 L 324.50,311.50 L 303.50,311.50 L 303.00,303.50 L 302.92,302.36 L 302.76,300.40 L 302.66,299.46 L 302.43,297.84 L 302.31,297.07 L 301.99,295.73 L 301.81,295.08 L 301.37,293.96 L 300.89,292.87 L 299.45,291.04 L 296.31,288.29 L 295.52,287.69 L 294.18,286.84 L 293.52,286.46 L 292.14,286.00 L 291.42,285.80 L 289.63,285.61 L 286.08,285.53 L 285.05,285.54 L 283.19,285.65 L 282.29,285.72 L 280.65,285.97 L 279.06,286.25 L 276.49,287.28 L 275.28,287.88 L 273.34,289.60 L 270.97,293.06 L 270.48,294.02 L 269.83,296.02 L 269.69,296.61 L 269.48,298.12 L 269.38,298.96 L 269.25,301.14 L 269.19,302.35 L 269.13,305.46 L 269.12,306.31 L 269.10,308.23 L 269.10,309.22 L 269.09,311.46 L 269.09,312.61 L 269.10,315.20 L 269.11,316.53 L 269.13,319.50 L 269.14,321.03 L 269.16,324.40 L 269.21,329.96 L 269.23,331.94 L 269.26,335.54 L 269.28,337.28 L 269.31,340.45 L 269.33,341.99 L 269.36,344.75 L 269.38,346.09 L 269.42,348.48 L 269.44,349.64 L 269.48,351.69 L 269.50,352.68 L 269.56,354.42 L 269.61,356.10 L 269.75,358.64 L 269.83,359.81 L 270.03,361.51 L 270.14,362.28 L 270.41,363.40 L 270.56,363.90 L 270.92,364.66 L 271.59,365.68 L 272.54,366.96 L 274.56,368.98 L 275.60,369.91 L 277.86,371.26 L 279.03,371.86 L 281.63,372.58 L 286.00,373.00 L 287.07,373.00 L 288.86,372.89 L 289.71,372.81 L 291.18,372.51 L 291.88,372.33 L 293.16,371.81 L 295.01,370.75 L 296.50,369.74 L 298.69,367.80 L 299.68,366.81 L 301.02,364.61 L 301.31,364.02 L 301.77,362.72 L 301.98,362.05 L 302.30,360.53 L 302.44,359.75 L 302.64,357.96 L 302.85,354.93 L 303.21,347.00 L 325.23,347.00 L 324.84,356.83 L 324.79,357.91 L 324.70,359.77 L 324.65,360.67 L 324.52,362.22 L 324.39,363.71 L 323.95,366.11 L 323.70,367.26 L 322.91,369.47 L 321.18,373.28 L 320.51,374.65 L 318.99,377.18 L 318.21,378.41 L 316.47,380.65 L 315.57,381.74 L 313.60,383.71 L 312.59,384.66 L 310.39,386.35 L 309.26,387.17 L 306.82,388.58 L 305.57,389.26 L 302.89,390.41 L 301.52,390.95 L 298.59,391.84 L 293.92,392.87 L 292.99,393.03 L 291.39,393.29 L 290.61,393.41 L 289.25,393.58 L 287.92,393.74 L 285.61,393.82 L 284.45,393.82 L 281.93,393.59 L 281.25,393.51 L 279.73,393.29 L 278.94,393.17 L 277.12,392.87 L 275.19,392.55 L 271.69,391.61 L 269.99,391.09 L 266.84,389.69 L 265.30,388.93 L 262.36,387.00 L 258.05,383.45 L 256.37,381.88 L 253.64,378.54 L 252.37,376.82 L 250.41,373.05 L 249.51,371.09 L 248.22,366.68 L 247.94,365.54 L 247.48,363.09 L 246.95,359.16 L 246.87,358.45 L 246.74,356.70 L 246.67,355.78 L 246.56,353.63 L 246.50,352.52 L 246.41,350.04 L 246.36,348.77 L 246.28,346.02 L 246.21,343.21 L 246.12,337.04 L 246.09,333.91 L 246.08,327.43 L 246.08,324.20 L 246.14,317.90 L 246.18,314.81 L 246.32,309.17 L 246.36,307.82 L 246.45,305.33 L 246.50,304.12 L 246.61,301.96 L 246.67,300.93 L 246.80,299.15 L 247.01,297.00 L 247.26,295.07 L 248.03,291.46 L 248.47,289.70 L 249.63,286.43 L 250.26,284.84 L 251.80,281.90 L 252.62,280.48 L 254.54,277.88 L 255.55,276.63 L 257.86,274.38 L 259.06,273.29 L 261.74,271.38 L 263.13,270.47 L 266.18,268.90 L 271.19,266.94 L 272.64,266.47 L 275.08,265.83 L 276.28,265.55 L 278.65,265.23 L 279.89,265.10 L 282.76,265.05 L 283.54,265.05 M 465.66,264.82 L 468.68,265.11 L 470.18,265.29 L 473.14,265.86 L 474.61,266.18 L 477.48,267.02 L 478.90,267.48 L 481.63,268.60 L 482.97,269.19 L 485.52,270.58 L 486.76,271.30 L 489.08,272.95 L 490.21,273.81 L 492.25,275.71 L 493.24,276.69 L 494.97,278.85 L 497.16,282.35 L 497.45,282.92 L 498.01,284.42 L 498.27,285.22 L 498.76,287.05 L 499.23,288.94 L 499.89,293.07 L 500.02,294.08 L 500.19,296.00 L 500.26,296.94 L 500.28,298.59 L 500.27,299.36 L 500.13,300.59 L 499.71,301.78 L 499.53,302.02 L 498.72,302.36 L 498.23,302.51 L 496.72,302.71 L 495.87,302.79 L 493.57,302.84 L 489.10,302.78 L 479.50,302.50 L 478.95,298.00 L 478.76,296.43 L 478.17,293.93 L 477.83,292.76 L 476.83,290.93 L 476.27,290.08 L 474.73,288.70 L 471.67,286.94 L 470.43,286.37 L 468.02,285.64 L 466.82,285.33 L 464.49,285.11 L 463.33,285.06 L 461.06,285.35 L 457.72,286.36 L 456.35,286.94 L 454.28,288.24 L 453.35,288.93 L 452.06,290.60 L 451.50,291.49 L 450.86,293.73 L 450.50,297.93 L 450.50,298.97 L 450.66,300.85 L 450.77,301.76 L 451.18,303.41 L 451.42,304.22 L 452.11,305.70 L 452.49,306.42 L 453.51,307.76 L 454.06,308.42 L 455.43,309.68 L 456.17,310.30 L 457.93,311.51 L 458.87,312.12 L 461.07,313.33 L 464.91,315.20 L 466.39,315.88 L 469.13,317.15 L 470.47,317.77 L 472.95,318.95 L 475.37,320.10 L 479.48,322.18 L 481.42,323.19 L 484.70,325.06 L 486.24,325.98 L 488.83,327.73 L 490.05,328.61 L 492.09,330.36 L 493.06,331.25 L 494.69,333.09 L 495.47,334.04 L 496.85,336.09 L 498.79,339.50 L 499.26,340.41 L 500.05,342.50 L 500.41,343.59 L 501.00,345.97 L 501.27,347.20 L 501.65,349.79 L 501.81,351.11 L 501.98,353.83 L 502.09,356.57 L 501.68,362.10 L 501.52,363.46 L 501.03,366.09 L 500.06,369.82 L 499.55,371.39 L 498.32,374.30 L 497.67,375.71 L 496.14,378.30 L 495.33,379.56 L 493.50,381.84 L 492.55,382.94 L 490.42,384.90 L 489.32,385.85 L 486.88,387.50 L 485.63,388.29 L 482.89,389.64 L 481.49,390.27 L 478.44,391.31 L 473.53,392.53 L 472.48,392.73 L 470.69,393.06 L 469.84,393.21 L 468.36,393.44 L 466.95,393.65 L 464.64,393.80 L 463.51,393.82 L 461.13,393.62 L 460.50,393.55 L 459.07,393.34 L 458.32,393.23 L 456.59,392.94 L 455.74,392.80 L 453.90,392.33 L 452.96,392.08 L 451.02,391.41 L 449.06,390.69 L 445.14,388.82 L 443.22,387.83 L 439.82,385.63 L 439.03,385.07 L 437.65,383.94 L 435.94,382.28 L 434.70,380.86 L 432.60,377.73 L 431.62,376.12 L 430.06,372.60 L 429.34,370.79 L 428.31,366.89 L 427.35,360.63 L 426.70,352.93 L 437.60,353.21 L 448.50,353.50 L 449.01,358.56 L 449.13,359.70 L 449.57,361.81 L 449.84,362.83 L 450.57,364.68 L 450.97,365.57 L 451.97,367.15 L 452.50,367.91 L 453.76,369.21 L 454.42,369.83 L 455.93,370.84 L 456.71,371.31 L 458.45,372.03 L 459.35,372.34 L 461.31,372.75 L 464.50,372.99 L 465.63,372.99 L 467.77,372.71 L 468.82,372.52 L 470.75,371.88 L 471.69,371.52 L 473.39,370.56 L 474.21,370.04 L 475.65,368.78 L 476.33,368.11 L 477.48,366.58 L 478.02,365.79 L 478.85,364.02 L 479.22,363.11 L 479.70,361.12 L 480.00,357.94 L 480.00,356.94 L 479.77,355.09 L 479.62,354.18 L 479.05,352.49 L 478.72,351.66 L 477.77,350.09 L 477.24,349.32 L 475.87,347.83 L 475.13,347.09 L 473.30,345.65 L 472.32,344.93 L 469.98,343.48 L 468.75,342.76 L 465.87,341.28 L 460.90,338.97 L 459.23,338.23 L 456.23,336.87 L 454.78,336.20 L 452.20,334.95 L 450.96,334.33 L 448.74,333.16 L 447.67,332.58 L 445.76,331.45 L 443.91,330.33 L 440.93,328.09 L 437.08,324.47 L 436.22,323.53 L 434.74,321.78 L 434.03,320.91 L 432.85,319.22 L 432.29,318.37 L 431.37,316.66 L 430.94,315.80 L 430.26,313.99 L 429.94,313.06 L 429.47,311.06 L 429.25,310.03 L 428.96,307.76 L 428.83,306.58 L 428.68,303.95 L 428.60,299.50 L 428.60,297.93 L 428.68,295.13 L 428.73,293.79 L 428.94,291.38 L 429.07,290.22 L 429.43,288.12 L 429.63,287.10 L 430.17,285.24 L 430.76,283.41 L 432.60,280.13 L 433.12,279.31 L 434.35,277.67 L 436.52,275.11 L 437.46,274.07 L 439.57,272.23 L 440.66,271.35 L 443.03,269.83 L 444.24,269.11 L 446.83,267.91 L 448.15,267.34 L 450.92,266.45 L 452.32,266.04 L 455.21,265.45 L 456.67,265.19 L 459.64,264.89 L 461.14,264.78 L 464.15,264.78 M 543.50,267.50 L 543.50,390.50 L 532.75,390.78 L 522.00,391.07 L 522.00,266.93 M 409.79,276.75 L 409.50,286.50 L 368.00,287.04 L 368.00,318.00 L 384.75,318.02 L 387.05,318.02 L 391.36,318.09 L 393.42,318.13 L 396.96,318.27 L 397.78,318.30 L 399.20,318.39 L 399.87,318.43 L 400.97,318.53 L 401.47,318.58 L 402.19,318.68 L 402.79,318.85 L 403.03,319.00 L 403.37,319.71 L 403.53,320.15 L 403.72,321.52 L 403.80,322.29 L 403.86,324.42 L 403.79,328.58 L 403.50,337.50 L 368.00,338.05 L 368.00,371.00 L 410.00,371.00 L 410.00,391.00 L 346.00,391.00 L 346.00,267.00 L 410.07,267.00 M 702.62,296.64 L 704.12,298.93 L 706.95,303.30 L 708.32,305.41 L 710.69,309.11 L 711.24,309.97 L 712.22,311.50 L 712.68,312.23 L 713.45,313.46 L 713.80,314.02 L 714.33,314.88 L 714.82,315.71 L 715.05,316.14 L 715.49,316.77 L 715.70,317.04 L 716.11,317.34 L 716.31,317.45 L 716.72,317.45 L 717.35,317.13 L 717.43,317.06 L 717.80,316.59 L 718.02,316.31 L 718.64,315.46 L 718.98,314.99 L 719.82,313.80 L 720.26,313.16 L 721.28,311.67 L 721.81,310.89 L 722.98,309.15 L 723.58,308.26 L 724.87,306.32 L 729.03,299.96 L 730.47,297.74 L 733.21,293.54 L 734.54,291.51 L 736.87,287.98 L 737.41,287.16 L 738.37,285.72 L 738.83,285.03 L 739.59,283.89 L 739.95,283.37 L 740.48,282.58 L 741.00,281.86 L 741.34,281.43 L 742.12,280.83 L 742.58,280.57 L 744.01,280.28 L 744.43,280.23 L 745.48,280.16 L 746.05,280.13 L 747.45,280.11 L 748.20,280.11 L 750.01,280.13 L 753.25,280.21 L 764.01,280.50 L 746.50,306.74 L 745.30,308.55 L 742.99,312.03 L 741.85,313.74 L 739.71,316.98 L 738.66,318.56 L 736.74,321.49 L 735.80,322.91 L 734.14,325.46 L 733.35,326.67 L 732.00,328.76 L 731.37,329.74 L 730.38,331.29 L 729.94,331.99 L 729.36,332.94 L 729.00,333.60 L 729.00,333.65 L 729.13,333.91 L 729.21,334.08 L 729.50,334.56 L 729.82,335.10 L 730.86,336.73 L 731.44,337.61 L 732.88,339.76 L 735.35,343.36 L 735.78,343.99 L 736.79,345.44 L 737.31,346.20 L 738.47,347.86 L 739.65,349.56 L 742.27,353.34 L 743.60,355.26 L 746.29,359.12 L 750.02,364.50 L 752.31,367.80 L 757.16,374.78 L 758.30,376.42 L 760.31,379.30 L 760.78,379.97 L 761.60,381.15 L 762.63,382.63 L 763.22,383.47 L 764.24,385.06 L 764.72,385.82 L 765.47,387.14 L 765.80,387.75 L 766.19,388.65 L 766.29,389.38 L 766.20,389.46 L 765.25,389.62 L 764.66,389.69 L 762.89,389.81 L 761.92,389.86 L 759.55,389.93 L 755.58,389.97 L 754.42,389.96 L 752.47,389.95 L 751.55,389.94 L 750.03,389.89 L 749.33,389.86 L 748.18,389.78 L 747.65,389.73 L 746.80,389.59 L 746.01,389.44 L 745.02,388.91 L 743.85,387.67 L 743.74,387.51 L 743.32,386.92 L 743.09,386.58 L 742.44,385.65 L 742.10,385.14 L 741.26,383.92 L 740.82,383.28 L 739.82,381.82 L 738.79,380.30 L 736.36,376.74 L 732.44,370.95 L 731.10,368.96 L 728.42,365.04 L 727.10,363.12 L 724.68,359.64 L 724.10,358.81 L 723.05,357.31 L 722.54,356.59 L 721.64,355.33 L 721.22,354.74 L 720.52,353.78 L 719.73,352.72 L 716.79,348.95 L 706.23,364.22 L 704.78,366.32 L 701.83,370.57 L 700.37,372.66 L 697.64,376.55 L 696.99,377.48 L 695.78,379.20 L 695.19,380.03 L 694.14,381.51 L 693.64,382.21 L 692.80,383.38 L 691.81,384.75 L 687.94,390.00 L 676.66,390.00 L 674.14,389.94 L 672.94,389.90 L 670.89,389.78 L 669.96,389.71 L 668.62,389.54 L 668.06,389.45 L 667.66,389.25 L 667.63,389.20 L 667.95,388.56 L 668.16,388.16 L 668.94,386.87 L 669.38,386.15 L 670.57,384.29 L 671.21,383.29 L 672.76,380.94 L 673.58,379.70 L 675.45,376.92 L 676.41,375.48 L 678.54,372.35 L 679.63,370.75 L 681.97,367.34 L 685.68,362.00 L 686.95,360.18 L 689.40,356.65 L 690.60,354.92 L 692.89,351.62 L 694.00,350.01 L 696.07,347.01 L 697.07,345.56 L 698.87,342.94 L 699.73,341.69 L 701.20,339.53 L 701.89,338.51 L 702.99,336.88 L 703.49,336.14 L 704.17,335.12 L 704.64,334.34 L 704.68,334.26 L 704.39,333.58 L 704.18,333.15 L 703.45,331.82 L 703.04,331.09 L 701.91,329.20 L 701.30,328.20 L 699.83,325.82 L 699.06,324.58 L 697.29,321.80 L 696.38,320.36 L 694.35,317.24 L 693.32,315.64 L 691.09,312.26 L 687.57,306.96 L 686.36,305.16 L 684.04,301.69 L 682.90,299.98 L 680.75,296.75 L 679.70,295.18 L 677.76,292.27 L 676.83,290.86 L 675.16,288.34 L 674.37,287.13 L 673.01,285.07 L 672.38,284.11 L 671.39,282.59 L 670.94,281.90 L 670.36,280.98 L 670.00,280.37 L 670.00,280.35 L 670.22,280.30 L 670.37,280.27 L 670.86,280.23 L 671.41,280.18 L 673.19,280.11 L 674.18,280.08 L 676.65,280.03 L 680.87,280.00 L 691.74,280.00 Z" fill="rgb(253,253,253)"/>
<path d="M 566.21,392.15 L 565.98,392.00 L 565.63,391.20 L 565.47,390.70 L 565.28,389.08 L 565.20,388.16 L 565.15,385.57 L 565.14,384.85 L 565.16,383.21 L 565.21,380.42 L 565.50,369.50 L 604.62,369.24 L 606.55,369.23 L 610.17,369.20 L 611.93,369.20 L 615.21,369.18 L 616.80,369.18 L 619.76,369.17 L 621.20,369.17 L 623.85,369.17 L 625.14,369.17 L 627.50,369.18 L 628.64,369.19 L 630.73,369.20 L 632.74,369.22 L 636.01,369.29 L 637.53,369.33 L 639.89,369.44 L 640.96,369.50 L 642.53,369.65 L 643.22,369.73 L 644.11,369.92 L 644.81,370.27 L 644.95,370.44 L 645.25,371.55 L 645.39,372.21 L 645.65,374.09 L 645.78,375.10 L 645.98,377.52 L 646.19,381.47 L 646.23,382.69 L 646.29,384.71 L 646.31,385.66 L 646.33,387.17 L 646.33,387.87 L 646.29,388.96 L 646.26,389.46 L 646.14,390.20 L 646.00,390.87 L 645.43,391.51 L 644.00,392.09 L 643.78,392.15 L 642.57,392.26 L 641.84,392.32 L 639.72,392.42 L 638.55,392.47 L 635.65,392.55 L 634.12,392.59 L 630.59,392.66 L 628.75,392.69 L 624.72,392.75 L 622.66,392.77 L 618.26,392.81 L 613.80,392.85 L 604.38,392.87 L 599.68,392.87 L 590.59,392.83 L 588.39,392.82 L 584.25,392.78 L 582.22,392.76 L 578.54,392.70 L 576.76,392.67 L 573.68,392.60 L 572.22,392.57 L 569.86,392.48 L 568.79,392.43 L 567.31,392.33 L 566.69,392.27 Z" fill="rgb(251,226,20)"/>
</g>
</svg>