<?xml version="1.0" ?>
<!DOCTYPE svg  PUBLIC '-//W3C//DTD SVG 1.1//EN'  'http://www.w3.org/Graphics/SVG/1.1/DTD/svg11.dtd'>
<!-- Uploaded to: SVG Repo, www.svgrepo.com, Generator: SVG Repo Mixer Tools -->
<svg width="800px" height="800px" viewBox="0 0 24 24" enable-background="new 0 0 24 24" version="1.1" xml:space="preserve" xmlns="http://www.w3.org/2000/svg" xmlns:xlink="http://www.w3.org/1999/xlink">
<g id="Food_Drink25"/>
<g id="Food_Drink24">
<g>
<path d="M17,3v3H7V3c0-0.55,0.45-1,1-1h8C16.55,2,17,2.45,17,3z" fill="#137D70"/>
</g>
<path d="M15,20h-2v-7c0-0.5527-0.4473-1-1-1s-1,0.4473-1,1v7H9c-0.5527,0-1,0.4473-1,1s0.4473,1,1,1h6   c0.5527,0,1-0.4473,1-1S15.5527,20,15,20z" fill="#137D70"/>
<g>
<path d="M17,6v3c0,2.42-1.72,4.44-4,4.9c-0.32,0.07-0.66,0.1-1,0.1s-0.68-0.03-1-0.1C8.72,13.44,7,11.42,7,9V6H17z    " fill="#FFB132"/>
</g>
</g>
<g id="Food_Drink23"/>
<g id="Food_Drink22"/>
<g id="Food_Drink21"/>
<g id="Food_Drink20"/>
<g id="Food_Drink19"/>
<g id="Food_Drink18"/>
<g id="Food_Drink17"/>
<g id="Food_Drink16"/>
<g id="Food_Drink15"/>
<g id="Food_Drink14"/>
<g id="Food_Drink13"/>
<g id="Food_Drink12"/>
<g id="Food_Drink11"/>
<g id="Food_Drink10"/>
<g id="Food_Drink09"/>
<g id="Food_Drink08"/>
<g id="Food_Drink07"/>
<g id="Food_Drink06"/>
<g id="Food_Drink05"/>
<g id="Food_Drink04"/>
<g id="Food_Drink03"/>
<g id="Food_Drink02"/>
<g id="Food_Drink01"/>
</svg>