<?xml version="1.0" ?>
<!DOCTYPE svg  PUBLIC '-//W3C//DTD SVG 1.1//EN'  'http://www.w3.org/Graphics/SVG/1.1/DTD/svg11.dtd'>
<!-- Uploaded to: SVG Repo, www.svgrepo.com, Generator: SVG Repo Mixer Tools -->
<svg width="800px" height="800px" viewBox="0 0 24 24" enable-background="new 0 0 24 24" version="1.1" xml:space="preserve" xmlns="http://www.w3.org/2000/svg" xmlns:xlink="http://www.w3.org/1999/xlink">
<g id="Food_Drink25"/>
<g id="Food_Drink24"/>
<g id="Food_Drink23"/>
<g id="Food_Drink22"/>
<g id="Food_Drink21"/>
<g id="Food_Drink20"/>
<g id="Food_Drink19"/>
<g id="Food_Drink18"/>
<g id="Food_Drink17"/>
<g id="Food_Drink16"/>
<g id="Food_Drink15">
<g>
<g>
<path d="M22,11v10c0,0.55-0.45,1-1,1H3c-0.55,0-1-0.45-1-1V11c0-0.55,0.45-1,1-1h18C21.55,10,22,10.45,22,11z" fill="#E455A2"/>
</g>
</g>
<g>
<g>
<path d="M22.02,11c0,0.55-0.45,1-1,1c-0.01,0-0.01,0-0.02,0H3c-0.45,0-0.84-0.3-0.96-0.73     c-0.12-0.43,0.05-0.89,0.44-1.12l5.17-3.18C7.93,6.79,8.3,6.77,8.6,6.92C8.72,6.97,8.85,7,9,7c0.53,0,0.98-0.43,1-0.97     c0.02-0.33,0.19-0.63,0.48-0.8l5-3.08c0.46-0.29,1.08-0.15,1.37,0.32l4.91,7.85C21.92,10.5,22.02,10.74,22.02,11z" fill="#A04F9D"/>
</g>
</g>
<g>
<g>
<path d="M22,14.33v2.22c-0.15,0.08-0.3,0.18-0.45,0.28C20.77,17.35,19.8,18,18,18c-1.81,0-2.78-0.65-3.56-1.17     c-0.7-0.46-1.25-0.83-2.45-0.83c-1.19,0-1.74,0.37-2.44,0.83C8.77,17.35,7.8,18,5.99,18c-1.8,0-2.77-0.65-3.55-1.17     c-0.15-0.1-0.3-0.2-0.44-0.28v-2.22C2.64,14.57,3.13,14.89,3.55,15.17C4.25,15.63,4.8,16,5.99,16c1.2,0,1.75-0.37,2.45-0.83     C9.22,14.65,10.19,14,11.99,14c1.81,0,2.78,0.65,3.56,1.17C16.25,15.63,16.8,16,18,16c1.19,0,1.75-0.37,2.44-0.83     C20.87,14.89,21.35,14.56,22,14.33z" fill="#FFB132"/>
</g>
</g>
<g>
<g>
<path d="M12,6v0.13C11.92,7.74,10.61,9,9,9C8.55,9,8.12,8.91,7.74,8.72C6.69,8.23,6,7.16,6,6c0-1.65,1.35-3,3-3     S12,4.35,12,6z" fill="#FFB132"/>
</g>
</g>
</g>
<g id="Food_Drink14"/>
<g id="Food_Drink13"/>
<g id="Food_Drink12"/>
<g id="Food_Drink11"/>
<g id="Food_Drink10"/>
<g id="Food_Drink09"/>
<g id="Food_Drink08"/>
<g id="Food_Drink07"/>
<g id="Food_Drink06"/>
<g id="Food_Drink05"/>
<g id="Food_Drink04"/>
<g id="Food_Drink03"/>
<g id="Food_Drink02"/>
<g id="Food_Drink01"/>
</svg>