<?xml version="1.0" ?>
<!DOCTYPE svg  PUBLIC '-//W3C//DTD SVG 1.1//EN'  'http://www.w3.org/Graphics/SVG/1.1/DTD/svg11.dtd'>
<!-- Uploaded to: SVG Repo, www.svgrepo.com, Generator: SVG Repo Mixer Tools -->
<svg width="800px" height="800px" viewBox="0 0 24 24" enable-background="new 0 0 24 24" version="1.1" xml:space="preserve" xmlns="http://www.w3.org/2000/svg" xmlns:xlink="http://www.w3.org/1999/xlink">
<g id="Food_Drink25"/>
<g id="Food_Drink24"/>
<g id="Food_Drink23"/>
<g id="Food_Drink22"/>
<g id="Food_Drink21"/>
<g id="Food_Drink20"/>
<g id="Food_Drink19"/>
<g id="Food_Drink18"/>
<g id="Food_Drink17"/>
<g id="Food_Drink16"/>
<g id="Food_Drink15"/>
<g id="Food_Drink14"/>
<g id="Food_Drink13"/>
<g id="Food_Drink12"/>
<g id="Food_Drink11"/>
<g id="Food_Drink10"/>
<g id="Food_Drink09"/>
<g id="Food_Drink08"/>
<g id="Food_Drink07">
<g>
<g>
<path d="M18,12c0,9.89-5.75,10-6,10s-6-0.11-6-10s5.75-10,6-10S18,2.11,18,12z" fill="#E5893D"/>
</g>
</g>
<g>
<g>
<path d="M13,13h-2c-0.5522,0-1-0.4478-1-1s0.4478-1,1-1h2c0.5522,0,1,0.4478,1,1S13.5522,13,13,13z" fill="#D5704C"/>
</g>
</g>
<g>
<g>
<path d="M13,17h-2c-0.5522,0-1-0.4478-1-1s0.4478-1,1-1h2c0.5522,0,1,0.4478,1,1S13.5522,17,13,17z" fill="#D5704C"/>
</g>
</g>
<g>
<g>
<path d="M13,9h-2c-0.5522,0-1-0.4478-1-1s0.4478-1,1-1h2c0.5522,0,1,0.4478,1,1S13.5522,9,13,9z" fill="#D5704C"/>
</g>
</g>
</g>
<g id="Food_Drink06"/>
<g id="Food_Drink05"/>
<g id="Food_Drink04"/>
<g id="Food_Drink03"/>
<g id="Food_Drink02"/>
<g id="Food_Drink01"/>
</svg>