<?xml version="1.0" ?>
<!DOCTYPE svg  PUBLIC '-//W3C//DTD SVG 1.1//EN'  'http://www.w3.org/Graphics/SVG/1.1/DTD/svg11.dtd'>
<!-- Uploaded to: SVG Repo, www.svgrepo.com, Generator: SVG Repo Mixer Tools -->
<svg width="800px" height="800px" viewBox="0 0 24 24" enable-background="new 0 0 24 24" version="1.1" xml:space="preserve" xmlns="http://www.w3.org/2000/svg" xmlns:xlink="http://www.w3.org/1999/xlink">
<g id="Food_Drink25"/>
<g id="Food_Drink24"/>
<g id="Food_Drink23"/>
<g id="Food_Drink22"/>
<g id="Food_Drink21"/>
<g id="Food_Drink20"/>
<g id="Food_Drink19"/>
<g id="Food_Drink18"/>
<g id="Food_Drink17"/>
<g id="Food_Drink16"/>
<g id="Food_Drink15"/>
<g id="Food_Drink14"/>
<g id="Food_Drink13"/>
<g id="Food_Drink12"/>
<g id="Food_Drink11"/>
<g id="Food_Drink10"/>
<g id="Food_Drink09"/>
<g id="Food_Drink08"/>
<g id="Food_Drink07"/>
<g id="Food_Drink06"/>
<g id="Food_Drink05">
<g>
<g>
<path d="M19,17v4c0,0.55-0.45,1-1,1H6c-0.55,0-1-0.45-1-1v-4c0-0.55,0.45-1,1-1h12C18.55,16,19,16.45,19,17z" fill="#D5704C"/>
</g>
</g>
<g>
<g>
<path d="M21,6v0.15c0,1.44-0.76,2.75-2,3.46V18H5V9.61C3.76,8.9,3,7.59,3,6.15V6c0-2.2091,1.7909-4,4-4h10     C19.2091,2,21,3.7909,21,6z" fill="#E5893D"/>
</g>
</g>
</g>
<g id="Food_Drink04"/>
<g id="Food_Drink03"/>
<g id="Food_Drink02"/>
<g id="Food_Drink01"/>
</svg>