<?xml version="1.0" ?>
<!DOCTYPE svg  PUBLIC '-//W3C//DTD SVG 1.1//EN'  'http://www.w3.org/Graphics/SVG/1.1/DTD/svg11.dtd'>
<!-- Uploaded to: SVG Repo, www.svgrepo.com, Generator: SVG Repo Mixer Tools -->
<svg width="800px" height="800px" viewBox="0 0 24 24" enable-background="new 0 0 24 24" version="1.1" xml:space="preserve" xmlns="http://www.w3.org/2000/svg" xmlns:xlink="http://www.w3.org/1999/xlink">
<g id="Food_Drink25"/>
<g id="Food_Drink24"/>
<g id="Food_Drink23"/>
<g id="Food_Drink22"/>
<g id="Food_Drink21"/>
<g id="Food_Drink20"/>
<g id="Food_Drink19"/>
<g id="Food_Drink18"/>
<g id="Food_Drink17"/>
<g id="Food_Drink16"/>
<g id="Food_Drink15"/>
<g id="Food_Drink14"/>
<g id="Food_Drink13"/>
<g id="Food_Drink12">
<g>
<g>
<path d="M21.71,2.29c-0.39-0.39-1.03-0.39-1.42,0L6.28,16.3C5.89,16.1,5.46,16,5,16c-1.65,0-3,1.35-3,3     c0,1.65,1.35,3,3,3s3-1.35,3-3c0-0.46-0.1-0.89-0.3-1.28L21.71,3.71C22.1,3.32,22.1,2.68,21.71,2.29z M5.66,18.25     c0.03,0.03,0.06,0.06,0.09,0.09c-0.02-0.01-0.03-0.03-0.05-0.04C5.68,18.28,5.67,18.27,5.66,18.25z" fill="#E5893D"/>
</g>
<g>
<path d="M5.75,18.34c-0.02-0.01-0.03-0.03-0.05-0.04c-0.02-0.02-0.03-0.03-0.04-0.05     C5.69,18.28,5.72,18.31,5.75,18.34z" fill="#E5893D"/>
</g>
</g>
<g>
<g>
<path d="M21.04,7.57c0,0.27-0.11,0.52-0.3,0.71l-3.53,3.53c-0.2,0.2-0.45,0.3-0.71,0.3s-0.51-0.1-0.71-0.3     l-3.53-3.53c-0.19-0.19-0.3-0.44-0.3-0.71c0-0.26,0.11-0.52,0.3-0.71l3.53-3.53c0.39-0.39,1.03-0.39,1.42,0l3.53,3.53     C20.93,7.05,21.04,7.31,21.04,7.57z" fill="#D34A4B"/>
</g>
</g>
<g>
<g>
<path d="M15.28,13.74l-3.54,3.54c-0.18,0.19-0.44,0.29-0.7,0.29c-0.27,0-0.52-0.1-0.71-0.29l-3.54-3.54     c-0.39-0.39-0.39-1.02,0-1.41l3.54-3.54c0.39-0.39,1.02-0.39,1.41,0l3.54,3.54C15.67,12.72,15.67,13.35,15.28,13.74z" fill="#00936B"/>
</g>
</g>
</g>
<g id="Food_Drink11"/>
<g id="Food_Drink10"/>
<g id="Food_Drink09"/>
<g id="Food_Drink08"/>
<g id="Food_Drink07"/>
<g id="Food_Drink06"/>
<g id="Food_Drink05"/>
<g id="Food_Drink04"/>
<g id="Food_Drink03"/>
<g id="Food_Drink02"/>
<g id="Food_Drink01"/>
</svg>