<?xml version="1.0" ?>
<!DOCTYPE svg  PUBLIC '-//W3C//DTD SVG 1.1//EN'  'http://www.w3.org/Graphics/SVG/1.1/DTD/svg11.dtd'>
<!-- Uploaded to: SVG Repo, www.svgrepo.com, Generator: SVG Repo Mixer Tools -->
<svg width="800px" height="800px" viewBox="0 0 24 24" enable-background="new 0 0 24 24" version="1.1" xml:space="preserve" xmlns="http://www.w3.org/2000/svg" xmlns:xlink="http://www.w3.org/1999/xlink">
<g id="Food_Drink25">
<path d="M15.83,10.95c0-0.01-0.01-0.02-0.01-0.03C15.28,10.11,15,9.17,15,8.2V7V5V3c0-0.55-0.45-1-1-1h-4   C9.45,2,9,2.45,9,3v2v2v1.2c0,0.97-0.28,1.91-0.82,2.72c0,0.01-0.01,0.02-0.01,0.03C7.4,12.09,7,13.42,7,14.8V18v3   c0,0.55,0.45,1,1,1h8c0.55,0,1-0.45,1-1v-3v-3.2C17,13.42,16.6,12.09,15.83,10.95z" fill="#1688C5"/>
<path d="M15,3v2H9V3c0-0.55,0.45-1,1-1h4C14.55,2,15,2.45,15,3z" fill="#FFB132"/>
<path d="M17,18v3c0,0.55-0.45,1-1,1H8c-0.55,0-1-0.45-1-1v-3H17z" fill="#3265A2"/>
<g>
<rect fill="#DA8541" height="2" width="6" x="9" y="5"/>
</g>
</g>
<g id="Food_Drink24"/>
<g id="Food_Drink23"/>
<g id="Food_Drink22"/>
<g id="Food_Drink21"/>
<g id="Food_Drink20"/>
<g id="Food_Drink19"/>
<g id="Food_Drink18"/>
<g id="Food_Drink17"/>
<g id="Food_Drink16"/>
<g id="Food_Drink15"/>
<g id="Food_Drink14"/>
<g id="Food_Drink13"/>
<g id="Food_Drink12"/>
<g id="Food_Drink11"/>
<g id="Food_Drink10"/>
<g id="Food_Drink09"/>
<g id="Food_Drink08"/>
<g id="Food_Drink07"/>
<g id="Food_Drink06"/>
<g id="Food_Drink05"/>
<g id="Food_Drink04"/>
<g id="Food_Drink03"/>
<g id="Food_Drink02"/>
<g id="Food_Drink01"/>
</svg>