<?xml version="1.0" ?>
<!DOCTYPE svg  PUBLIC '-//W3C//DTD SVG 1.1//EN'  'http://www.w3.org/Graphics/SVG/1.1/DTD/svg11.dtd'>
<!-- Uploaded to: SVG Repo, www.svgrepo.com, Generator: SVG Repo Mixer Tools -->
<svg width="800px" height="800px" viewBox="0 0 24 24" enable-background="new 0 0 24 24" version="1.1" xml:space="preserve" xmlns="http://www.w3.org/2000/svg" xmlns:xlink="http://www.w3.org/1999/xlink">
<g id="Food_Drink25"/>
<g id="Food_Drink24"/>
<g id="Food_Drink23"/>
<g id="Food_Drink22"/>
<g id="Food_Drink21"/>
<g id="Food_Drink20">
<g>
<path d="M19,6.2V6H5c0-0.07,0.01-0.14,0.02-0.2c0.01-0.07,0.03-0.13,0.06-0.19l0.97-2.93C6.19,2.28,6.57,2,7,2h10    c0.43,0,0.81,0.28,0.95,0.68l0.94,2.82c0.08,0.15,0.13,0.32,0.13,0.5C19.02,6.07,19.01,6.14,19,6.2z" fill="#3265A2"/>
<path d="M5.08,5.61C5.05,5.67,5.03,5.73,5.02,5.8c0.01-0.04,0.02-0.08,0.03-0.12L5.08,5.61z" fill="#3265A2"/>
</g>
<g>
<path d="M19,6v12c0,0.55-0.45,1-1,1H6c-0.55,0-1-0.45-1-1V6H19z" fill="#1688C5"/>
</g>
<g>
<rect fill="#3AAC94" height="6" width="14" x="5" y="9"/>
</g>
<line fill="none" x1="5" x2="4" y1="6" y2="6"/>
<line fill="none" x1="19.02" x2="19" y1="6" y2="6"/>
<g>
<path d="M5,18v0.2h14c0,0.07-0.01,0.14-0.02,0.2c-0.01,0.07-0.03,0.13-0.06,0.19l-0.97,2.93    c-0.14,0.4-0.52,0.68-0.95,0.68H7c-0.43,0-0.81-0.28-0.95-0.68L5.11,18.7c-0.08-0.15-0.13-0.32-0.13-0.5    C4.98,18.13,4.99,18.06,5,18z" fill="#3265A2"/>
<path d="M18.92,18.59c0.03-0.06,0.05-0.12,0.06-0.19c-0.01,0.04-0.02,0.08-0.03,0.12L18.92,18.59z" fill="#3265A2"/>
</g>
</g>
<g id="Food_Drink19"/>
<g id="Food_Drink18"/>
<g id="Food_Drink17"/>
<g id="Food_Drink16"/>
<g id="Food_Drink15"/>
<g id="Food_Drink14"/>
<g id="Food_Drink13"/>
<g id="Food_Drink12"/>
<g id="Food_Drink11"/>
<g id="Food_Drink10"/>
<g id="Food_Drink09"/>
<g id="Food_Drink08"/>
<g id="Food_Drink07"/>
<g id="Food_Drink06"/>
<g id="Food_Drink05"/>
<g id="Food_Drink04"/>
<g id="Food_Drink03"/>
<g id="Food_Drink02"/>
<g id="Food_Drink01"/>
</svg>