<?xml version="1.0" ?>
<!DOCTYPE svg  PUBLIC '-//W3C//DTD SVG 1.1//EN'  'http://www.w3.org/Graphics/SVG/1.1/DTD/svg11.dtd'>
<!-- Uploaded to: SVG Repo, www.svgrepo.com, Generator: SVG Repo Mixer Tools -->
<svg width="800px" height="800px" viewBox="0 0 24 24" enable-background="new 0 0 24 24" version="1.1" xml:space="preserve" xmlns="http://www.w3.org/2000/svg" xmlns:xlink="http://www.w3.org/1999/xlink">
<g id="Food_Drink25"/>
<g id="Food_Drink24"/>
<g id="Food_Drink23">
<g>
<path d="M19,17h-2c-0.5527,0-1-0.4473-1-1v-6c0-0.5527,0.4473-1,1-1h2c1.6543,0,3,1.3457,3,3v2    C22,15.6543,20.6543,17,19,17z M18,15h1c0.5518,0,1-0.4482,1-1v-2c0-0.5518-0.4482-1-1-1h-1V15z" fill="#D34A4B"/>
</g>
<path d="M18,8v10c0,2.21-1.79,4-4,4H7.5c-2.21,0-4-1.79-4-4V8c0-0.55,0.45-1,1-1H17C17.55,7,18,7.45,18,8z" fill="#D34A4B"/>
<g>
<path d="M19,6v0.5C19,7.88,17.88,9,16.5,9H13c-0.28,0-0.5,0.22-0.5,0.5v3c0,1.38-1.12,2.5-2.5,2.5    s-2.5-1.12-2.5-2.5v-3C7.5,9.22,7.28,9,7,9H4.5C3.12,9,2,7.88,2,6.5V6c0-2.21,1.79-4,4-4h9C17.21,2,19,3.79,19,6z" fill="#FFB132"/>
</g>
</g>
<g id="Food_Drink22"/>
<g id="Food_Drink21"/>
<g id="Food_Drink20"/>
<g id="Food_Drink19"/>
<g id="Food_Drink18"/>
<g id="Food_Drink17"/>
<g id="Food_Drink16"/>
<g id="Food_Drink15"/>
<g id="Food_Drink14"/>
<g id="Food_Drink13"/>
<g id="Food_Drink12"/>
<g id="Food_Drink11"/>
<g id="Food_Drink10"/>
<g id="Food_Drink09"/>
<g id="Food_Drink08"/>
<g id="Food_Drink07"/>
<g id="Food_Drink06"/>
<g id="Food_Drink05"/>
<g id="Food_Drink04"/>
<g id="Food_Drink03"/>
<g id="Food_Drink02"/>
<g id="Food_Drink01"/>
</svg>