<?xml version="1.0" ?>
<!DOCTYPE svg  PUBLIC '-//W3C//DTD SVG 1.1//EN'  'http://www.w3.org/Graphics/SVG/1.1/DTD/svg11.dtd'>
<!-- Uploaded to: SVG Repo, www.svgrepo.com, Generator: SVG Repo Mixer Tools -->
<svg width="800px" height="800px" viewBox="0 0 24 24" enable-background="new 0 0 24 24" version="1.1" xml:space="preserve" xmlns="http://www.w3.org/2000/svg" xmlns:xlink="http://www.w3.org/1999/xlink">
<g id="Food_Drink25"/>
<g id="Food_Drink24"/>
<g id="Food_Drink23"/>
<g id="Food_Drink22">
<path d="M18.75,2.33C18.56,2.12,18.28,2,18,2H6C5.72,2,5.44,2.12,5.25,2.33c-0.19,0.21-0.28,0.5-0.24,0.78L5.44,7   l0.22,2l1.35,12.11C7.06,21.62,7.49,22,8,22h8c0.51,0,0.94-0.38,0.99-0.89L18.34,9l0.22-2l0.43-3.89   C19.03,2.83,18.94,2.54,18.75,2.33z" fill="#E455A2"/>
<path d="M18.56,7l-0.22,2l-1.35,12.11C16.94,21.62,16.51,22,16,22H8c-0.51,0-0.94-0.38-0.99-0.89L5.66,9L5.44,7   H18.56z" fill="#A04F9D"/>
</g>
<g id="Food_Drink21"/>
<g id="Food_Drink20"/>
<g id="Food_Drink19"/>
<g id="Food_Drink18"/>
<g id="Food_Drink17"/>
<g id="Food_Drink16"/>
<g id="Food_Drink15"/>
<g id="Food_Drink14"/>
<g id="Food_Drink13"/>
<g id="Food_Drink12"/>
<g id="Food_Drink11"/>
<g id="Food_Drink10"/>
<g id="Food_Drink09"/>
<g id="Food_Drink08"/>
<g id="Food_Drink07"/>
<g id="Food_Drink06"/>
<g id="Food_Drink05"/>
<g id="Food_Drink04"/>
<g id="Food_Drink03"/>
<g id="Food_Drink02"/>
<g id="Food_Drink01"/>
</svg>