<?xml version="1.0" ?>
<!DOCTYPE svg  PUBLIC '-//W3C//DTD SVG 1.1//EN'  'http://www.w3.org/Graphics/SVG/1.1/DTD/svg11.dtd'>
<!-- Uploaded to: SVG Repo, www.svgrepo.com, Generator: SVG Repo Mixer Tools -->
<svg width="800px" height="800px" viewBox="0 0 24 24" enable-background="new 0 0 24 24" version="1.1" xml:space="preserve" xmlns="http://www.w3.org/2000/svg" xmlns:xlink="http://www.w3.org/1999/xlink">
<g id="Food_Drink25"/>
<g id="Food_Drink24"/>
<g id="Food_Drink23"/>
<g id="Food_Drink22"/>
<g id="Food_Drink21">
<g>
<path d="M18,14.66V21c0,0.55-0.45,1-1,1H7c-0.55,0-1-0.45-1-1v-6.34c0-1.34,0.52-2.59,1.46-3.54l0.66-0.66    C8.69,9.9,9,9.14,9,8.34V6c0-0.55,0.45-1,1-1h4c0.55,0,1,0.45,1,1v2.34c0,0.8,0.31,1.56,0.88,2.12l0.66,0.66    C17.48,12.07,18,13.32,18,14.66z" fill="#1688C5"/>
</g>
<g>
<path d="M17,4.5C17,5.88,15.88,7,14.5,7h-5C8.12,7,7,5.88,7,4.5S8.12,2,9.5,2h5C15.88,2,17,3.12,17,4.5z" fill="#3265A2"/>
</g>
<g>
<rect fill="#FFBF42" height="2" width="12" x="6" y="16"/>
</g>
</g>
<g id="Food_Drink20"/>
<g id="Food_Drink19"/>
<g id="Food_Drink18"/>
<g id="Food_Drink17"/>
<g id="Food_Drink16"/>
<g id="Food_Drink15"/>
<g id="Food_Drink14"/>
<g id="Food_Drink13"/>
<g id="Food_Drink12"/>
<g id="Food_Drink11"/>
<g id="Food_Drink10"/>
<g id="Food_Drink09"/>
<g id="Food_Drink08"/>
<g id="Food_Drink07"/>
<g id="Food_Drink06"/>
<g id="Food_Drink05"/>
<g id="Food_Drink04"/>
<g id="Food_Drink03"/>
<g id="Food_Drink02"/>
<g id="Food_Drink01"/>
</svg>