<?xml version="1.0" ?>
<!DOCTYPE svg  PUBLIC '-//W3C//DTD SVG 1.1//EN'  'http://www.w3.org/Graphics/SVG/1.1/DTD/svg11.dtd'>
<!-- Uploaded to: SVG Repo, www.svgrepo.com, Generator: SVG Repo Mixer Tools -->
<svg width="800px" height="800px" viewBox="0 0 24 24" enable-background="new 0 0 24 24" version="1.1" xml:space="preserve" xmlns="http://www.w3.org/2000/svg" xmlns:xlink="http://www.w3.org/1999/xlink">
<g id="Food_Drink25"/>
<g id="Food_Drink24"/>
<g id="Food_Drink23"/>
<g id="Food_Drink22"/>
<g id="Food_Drink21"/>
<g id="Food_Drink20"/>
<g id="Food_Drink19"/>
<g id="Food_Drink18">
<g>
<g>
<path d="M18,7.07L17.93,8l-0.35,5l-0.36,5L17,21.07C16.96,21.59,16.52,22,16,22H8c-0.52,0-0.96-0.41-1-0.93     L6.78,18l-0.36-5L6.07,8L6,7.07C5.98,6.79,6.08,6.52,6.27,6.32C6.46,6.12,6.72,6,7,6h10c0.28,0,0.54,0.12,0.73,0.32     C17.92,6.52,18.02,6.79,18,7.07z" fill="#00936B"/>
</g>
</g>
<g>
<g>
<polygon fill="#FFB132" points="17.58,13 17.22,18 6.78,18 6.42,13    "/>
</g>
</g>
<g>
<g>
<path d="M19,3v4c0,0.55-0.45,1-1,1H6C5.45,8,5,7.55,5,7V3c0-0.55,0.45-1,1-1h12C18.55,2,19,2.45,19,3z" fill="#137D70"/>
</g>
</g>
</g>
<g id="Food_Drink17"/>
<g id="Food_Drink16"/>
<g id="Food_Drink15"/>
<g id="Food_Drink14"/>
<g id="Food_Drink13"/>
<g id="Food_Drink12"/>
<g id="Food_Drink11"/>
<g id="Food_Drink10"/>
<g id="Food_Drink09"/>
<g id="Food_Drink08"/>
<g id="Food_Drink07"/>
<g id="Food_Drink06"/>
<g id="Food_Drink05"/>
<g id="Food_Drink04"/>
<g id="Food_Drink03"/>
<g id="Food_Drink02"/>
<g id="Food_Drink01"/>
</svg>