<?xml version="1.0" ?>
<!DOCTYPE svg  PUBLIC '-//W3C//DTD SVG 1.1//EN'  'http://www.w3.org/Graphics/SVG/1.1/DTD/svg11.dtd'>
<!-- Uploaded to: SVG Repo, www.svgrepo.com, Generator: SVG Repo Mixer Tools -->
<svg width="800px" height="800px" viewBox="0 0 24 24" enable-background="new 0 0 24 24" version="1.1" xml:space="preserve" xmlns="http://www.w3.org/2000/svg" xmlns:xlink="http://www.w3.org/1999/xlink">
<g id="Food_Drink25"/>
<g id="Food_Drink24"/>
<g id="Food_Drink23"/>
<g id="Food_Drink22"/>
<g id="Food_Drink21"/>
<g id="Food_Drink20"/>
<g id="Food_Drink19"/>
<g id="Food_Drink18"/>
<g id="Food_Drink17"/>
<g id="Food_Drink16">
<g>
<path d="M18.92,9.57L18,5.88V5.76V3c0-0.55-0.45-1-1-1H7C6.45,2,6,2.45,6,3v2.76v0.12L5.03,9.76    C5.01,9.84,5,9.92,5,10v11c0,0.55,0.45,1,1,1h12c0.55,0,1-0.45,1-1V10.2c0.01-0.06,0.02-0.13,0.02-0.2    C19.02,9.85,18.99,9.7,18.92,9.57z" fill="#1688C5"/>
</g>
<g>
<g>
<path d="M19.01,10H4.99c0-0.08,0.01-0.16,0.03-0.24l0.97-3.88l0.03-0.12H17.96l0.03,0.12l0.92,3.69     C18.98,9.7,19.01,9.85,19.01,10z" fill="#3265A2"/>
</g>
<g>
<path d="M19.01,10c0,0.07-0.01,0.14-0.02,0.2V10H19.01z" fill="#3265A2"/>
</g>
</g>
<g>
<g>
<path d="M15,14v4c0,0.55-0.45,1-1,1h-4c-0.55,0-1-0.45-1-1v-4c0-0.55,0.45-1,1-1h4C14.55,13,15,13.45,15,14z" fill="#FFFFFF"/>
</g>
</g>
</g>
<g id="Food_Drink15"/>
<g id="Food_Drink14"/>
<g id="Food_Drink13"/>
<g id="Food_Drink12"/>
<g id="Food_Drink11"/>
<g id="Food_Drink10"/>
<g id="Food_Drink09"/>
<g id="Food_Drink08"/>
<g id="Food_Drink07"/>
<g id="Food_Drink06"/>
<g id="Food_Drink05"/>
<g id="Food_Drink04"/>
<g id="Food_Drink03"/>
<g id="Food_Drink02"/>
<g id="Food_Drink01"/>
</svg>