<?xml version="1.0" ?>
<!DOCTYPE svg  PUBLIC '-//W3C//DTD SVG 1.1//EN'  'http://www.w3.org/Graphics/SVG/1.1/DTD/svg11.dtd'>
<!-- Uploaded to: SVG Repo, www.svgrepo.com, Generator: SVG Repo Mixer Tools -->
<svg width="800px" height="800px" viewBox="0 0 24 24" enable-background="new 0 0 24 24" version="1.1" xml:space="preserve" xmlns="http://www.w3.org/2000/svg" xmlns:xlink="http://www.w3.org/1999/xlink">
<g id="Food_Drink25"/>
<g id="Food_Drink24"/>
<g id="Food_Drink23"/>
<g id="Food_Drink22"/>
<g id="Food_Drink21"/>
<g id="Food_Drink20"/>
<g id="Food_Drink19"/>
<g id="Food_Drink18"/>
<g id="Food_Drink17">
<g>
<path d="M19,5h-1H6C5.45,5,5,5.45,5,6v5c0,2.76,2.24,5,5,5h4c2.76,0,5-2.24,5-5c1.6543,0,3-1.3457,3-3    S20.6543,5,19,5z M19,9V7c0.5513,0,1,0.4482,1,1S19.5513,9,19,9z" fill="#D34A4B"/>
</g>
<g>
<g>
<path d="M22,15v1c0,1.65-1.35,3-3,3H5c-1.65,0-3-1.35-3-3v-1c0-0.55,0.45-1,1-1h18C21.55,14,22,14.45,22,15z" fill="#E5893D"/>
</g>
</g>
</g>
<g id="Food_Drink16"/>
<g id="Food_Drink15"/>
<g id="Food_Drink14"/>
<g id="Food_Drink13"/>
<g id="Food_Drink12"/>
<g id="Food_Drink11"/>
<g id="Food_Drink10"/>
<g id="Food_Drink09"/>
<g id="Food_Drink08"/>
<g id="Food_Drink07"/>
<g id="Food_Drink06"/>
<g id="Food_Drink05"/>
<g id="Food_Drink04"/>
<g id="Food_Drink03"/>
<g id="Food_Drink02"/>
<g id="Food_Drink01"/>
</svg>