<?xml version="1.0" ?>
<!DOCTYPE svg  PUBLIC '-//W3C//DTD SVG 1.1//EN'  'http://www.w3.org/Graphics/SVG/1.1/DTD/svg11.dtd'>
<!-- Uploaded to: SVG Repo, www.svgrepo.com, Generator: SVG Repo Mixer Tools -->
<svg width="800px" height="800px" viewBox="0 0 24 24" enable-background="new 0 0 24 24" version="1.1" xml:space="preserve" xmlns="http://www.w3.org/2000/svg" xmlns:xlink="http://www.w3.org/1999/xlink">
<g id="Food_Drink25"/>
<g id="Food_Drink24"/>
<g id="Food_Drink23"/>
<g id="Food_Drink22"/>
<g id="Food_Drink21"/>
<g id="Food_Drink20"/>
<g id="Food_Drink19"/>
<g id="Food_Drink18"/>
<g id="Food_Drink17"/>
<g id="Food_Drink16"/>
<g id="Food_Drink15"/>
<g id="Food_Drink14"/>
<g id="Food_Drink13"/>
<g id="Food_Drink12"/>
<g id="Food_Drink11"/>
<g id="Food_Drink10"/>
<g id="Food_Drink09"/>
<g id="Food_Drink08">
<g>
<g>
<path d="M7,12c-0.5522,0-1-0.4478-1-1V3c0-0.5522,0.4478-1,1-1s1,0.4478,1,1v8C8,11.5522,7.5522,12,7,12z" fill="#FFB132"/>
</g>
</g>
<g>
<g>
<path d="M10,12c-0.5522,0-1-0.4478-1-1V3c0-0.5522,0.4478-1,1-1s1,0.4478,1,1v8C11,11.5522,10.5522,12,10,12z" fill="#FFB132"/>
</g>
</g>
<g>
<g>
<path d="M21,4H5C4.4478,4,4,3.5522,4,3s0.4478-1,1-1h16c0.5527,0,1,0.4478,1,1S21.5527,4,21,4z" fill="#D5704C"/>
</g>
</g>
<g>
<g>
<path d="M19.02,11c0,0.55-0.45,1-1,1c-0.01,0-0.01,0-0.02,0h-6c-0.55,0-1-0.45-1-1c0-2.21,1.79-4,4-4     c2.13,0,3.87,1.67,3.99,3.77C19.01,10.84,19.02,10.92,19.02,11z" fill="#85C756"/>
</g>
</g>
<g>
<g>
<path d="M17,18v3c0,0.55-0.45,1-1,1H8c-0.55,0-1-0.45-1-1v-3c0-0.55,0.45-1,1-1h8C16.55,17,17,17.45,17,18z" fill="#1688C5"/>
</g>
</g>
<g>
<g>
<path d="M20,11v4c0,2.21-1.79,4-4,4H8c-2.21,0-4-1.79-4-4v-4c0-0.55,0.45-1,1-1h14C19.55,10,20,10.45,20,11z" fill="#3C6D9D"/>
</g>
</g>
</g>
<g id="Food_Drink07"/>
<g id="Food_Drink06"/>
<g id="Food_Drink05"/>
<g id="Food_Drink04"/>
<g id="Food_Drink03"/>
<g id="Food_Drink02"/>
<g id="Food_Drink01"/>
</svg>