<?xml version="1.0" ?>
<!DOCTYPE svg  PUBLIC '-//W3C//DTD SVG 1.1//EN'  'http://www.w3.org/Graphics/SVG/1.1/DTD/svg11.dtd'>
<!-- Uploaded to: SVG Repo, www.svgrepo.com, Generator: SVG Repo Mixer Tools -->
<svg width="800px" height="800px" viewBox="0 0 24 24" enable-background="new 0 0 24 24" version="1.1" xml:space="preserve" xmlns="http://www.w3.org/2000/svg" xmlns:xlink="http://www.w3.org/1999/xlink">
<g id="Food_Drink25"/>
<g id="Food_Drink24"/>
<g id="Food_Drink23"/>
<g id="Food_Drink22"/>
<g id="Food_Drink21"/>
<g id="Food_Drink20"/>
<g id="Food_Drink19"/>
<g id="Food_Drink18"/>
<g id="Food_Drink17"/>
<g id="Food_Drink16"/>
<g id="Food_Drink15"/>
<g id="Food_Drink14"/>
<g id="Food_Drink13">
<g>
<g>
<path d="M17,6v3c0,0.55-0.45,1-1,1H8c-0.55,0-1-0.45-1-1V6c0-0.55,0.45-1,1-1h8C16.55,5,17,5.45,17,6z" fill="#B14F9B"/>
</g>
</g>
<g>
<g>
<path d="M20,11v10c0,0.55-0.45,1-1,1H5c-0.55,0-1-0.45-1-1V11c0-1.65,1.35-3,3-3h10C18.65,8,20,9.35,20,11z" fill="#E455A2"/>
</g>
</g>
<g>
<g>
<path d="M16,12v6c0,0.55-0.45,1-1,1H9c-0.55,0-1-0.45-1-1v-6c0-0.55,0.45-1,1-1h6C15.55,11,16,11.45,16,12z" fill="#FFBF42"/>
</g>
</g>
<g>
<g>
<path d="M19,5v1c0,0.55-0.45,1-1,1H6C5.45,7,5,6.55,5,6V5c0-1.65,1.35-3,3-3h8C17.65,2,19,3.35,19,5z" fill="#91447E"/>
</g>
</g>
</g>
<g id="Food_Drink12"/>
<g id="Food_Drink11"/>
<g id="Food_Drink10"/>
<g id="Food_Drink09"/>
<g id="Food_Drink08"/>
<g id="Food_Drink07"/>
<g id="Food_Drink06"/>
<g id="Food_Drink05"/>
<g id="Food_Drink04"/>
<g id="Food_Drink03"/>
<g id="Food_Drink02"/>
<g id="Food_Drink01"/>
</svg>