<?xml version="1.0" ?>
<!DOCTYPE svg  PUBLIC '-//W3C//DTD SVG 1.1//EN'  'http://www.w3.org/Graphics/SVG/1.1/DTD/svg11.dtd'>
<!-- Uploaded to: SVG Repo, www.svgrepo.com, Generator: SVG Repo Mixer Tools -->
<svg width="800px" height="800px" viewBox="0 0 24 24" enable-background="new 0 0 24 24" version="1.1" xml:space="preserve" xmlns="http://www.w3.org/2000/svg" xmlns:xlink="http://www.w3.org/1999/xlink">
<g id="Food_Drink25"/>
<g id="Food_Drink24"/>
<g id="Food_Drink23"/>
<g id="Food_Drink22"/>
<g id="Food_Drink21"/>
<g id="Food_Drink20"/>
<g id="Food_Drink19"/>
<g id="Food_Drink18"/>
<g id="Food_Drink17"/>
<g id="Food_Drink16"/>
<g id="Food_Drink15"/>
<g id="Food_Drink14"/>
<g id="Food_Drink13"/>
<g id="Food_Drink12"/>
<g id="Food_Drink11"/>
<g id="Food_Drink10"/>
<g id="Food_Drink09"/>
<g id="Food_Drink08"/>
<g id="Food_Drink07"/>
<g id="Food_Drink06"/>
<g id="Food_Drink05"/>
<g id="Food_Drink04"/>
<g id="Food_Drink03"/>
<g id="Food_Drink02"/>
<g id="Food_Drink01">
<g>
<g>
<path d="M20,15v4c0,1.65-1.35,3-3,3H7c-1.65,0-3-1.35-3-3v-4c0-0.55,0.45-1,1-1h2c1.38,0,2.5,1.12,2.5,2.5     c0,0.28,0.22,0.5,0.5,0.5s0.5-0.22,0.5-0.5c0-1.38,1.12-2.5,2.5-2.5h6C19.55,14,20,14.45,20,15z" fill="#FFAE3E"/>
</g>
</g>
<g>
<g>
<path d="M20,10v1c0,0.55-0.45,1-1,1H5c-0.55,0-1-0.45-1-1v-1c0-4.41,3.59-8,8-8c2.14,0,4.15,0.83,5.66,2.34     C19.17,5.85,20,7.86,20,10z" fill="#FFAE3E"/>
</g>
</g>
<g>
<g>
<path d="M22,12.5v1c0,1.38-1.12,2.5-2.5,2.5H13c-0.28,0-0.5,0.22-0.5,0.5c0,1.38-1.12,2.5-2.5,2.5     s-2.5-1.12-2.5-2.5C7.5,16.22,7.28,16,7,16H4.5C3.12,16,2,14.88,2,13.5v-1C2,11.12,3.12,10,4.5,10h15C20.88,10,22,11.12,22,12.5z     " fill="#D34A4B"/>
</g>
</g>
</g>
</svg>