<?xml version="1.0" ?>
<!DOCTYPE svg  PUBLIC '-//W3C//DTD SVG 1.1//EN'  'http://www.w3.org/Graphics/SVG/1.1/DTD/svg11.dtd'>
<!-- Uploaded to: SVG Repo, www.svgrepo.com, Generator: SVG Repo Mixer Tools -->
<svg width="800px" height="800px" viewBox="0 0 24 24" enable-background="new 0 0 24 24" version="1.1" xml:space="preserve" xmlns="http://www.w3.org/2000/svg" xmlns:xlink="http://www.w3.org/1999/xlink">
<g id="Food_Drink25"/>
<g id="Food_Drink24"/>
<g id="Food_Drink23"/>
<g id="Food_Drink22"/>
<g id="Food_Drink21"/>
<g id="Food_Drink20"/>
<g id="Food_Drink19"/>
<g id="Food_Drink18"/>
<g id="Food_Drink17"/>
<g id="Food_Drink16"/>
<g id="Food_Drink15"/>
<g id="Food_Drink14"/>
<g id="Food_Drink13"/>
<g id="Food_Drink12"/>
<g id="Food_Drink11"/>
<g id="Food_Drink10"/>
<g id="Food_Drink09"/>
<g id="Food_Drink08"/>
<g id="Food_Drink07"/>
<g id="Food_Drink06"/>
<g id="Food_Drink05"/>
<g id="Food_Drink04">
<g>
<path d="M17.15,6.27C16.91,6.01,16.55,5.9,16.2,5.98C16.13,5.99,16.06,6,16,6c-0.48,0-0.89-0.35-0.99-0.83    c-0.06-0.34-0.3-0.62-0.62-0.74C13.64,4.14,12.84,4,12,4c-3.86,0-7,3.14-7,7v0.99c0,0.04,0,0.08,0.01,0.12l0.01,0.09L5.81,19.33    C5.98,20.85,7.26,22,8.79,22h6.42c1.53,0,2.81-1.15,2.98-2.67L18.98,12.2l0.01-0.09C19,12.07,19,12.03,19,11.99V11    C19,9.24,18.34,7.56,17.15,6.27z" fill="#E455A2"/>
</g>
<g>
<g>
<path d="M19,11v0.99c0,0.04,0,0.08-0.01,0.12l-0.01,0.09L18.19,19.33C18.02,20.85,16.74,22,15.21,22H8.79     c-1.53,0-2.81-1.15-2.98-2.67L5.02,12.2l-0.01-0.09C5,12.07,5,12.03,5,11.99V11H19z" fill="#FFB841"/>
</g>
</g>
<g>
<g>
<path d="M14,19c-0.5527,0-1-0.4478-1-1v-3c0-0.5522,0.4473-1,1-1s1,0.4478,1,1v3C15,18.5522,14.5527,19,14,19z" fill="#D5704C"/>
</g>
</g>
<g>
<g>
<path d="M10,19c-0.5527,0-1-0.4478-1-1v-3c0-0.5522,0.4473-1,1-1s1,0.4478,1,1v3C11,18.5522,10.5527,19,10,19z" fill="#D5704C"/>
</g>
</g>
<g>
<g>
<path d="M19,5c0,1.41-1,2.64-2.37,2.93C16.49,7.96,16.26,8,16,8c-1.44,0-2.68-1.03-2.95-2.45     C13.01,5.35,13,5.18,13,5c0-1.65,1.35-3,3-3S19,3.35,19,5z" fill="#A04F9D"/>
</g>
</g>
</g>
<g id="Food_Drink03"/>
<g id="Food_Drink02"/>
<g id="Food_Drink01"/>
</svg>