<?xml version="1.0" ?>
<!DOCTYPE svg  PUBLIC '-//W3C//DTD SVG 1.1//EN'  'http://www.w3.org/Graphics/SVG/1.1/DTD/svg11.dtd'>
<!-- Uploaded to: SVG Repo, www.svgrepo.com, Generator: SVG Repo Mixer Tools -->
<svg width="800px" height="800px" viewBox="0 0 24 24" enable-background="new 0 0 24 24" version="1.1" xml:space="preserve" xmlns="http://www.w3.org/2000/svg" xmlns:xlink="http://www.w3.org/1999/xlink">
<g id="Food_Drink25"/>
<g id="Food_Drink24"/>
<g id="Food_Drink23"/>
<g id="Food_Drink22"/>
<g id="Food_Drink21"/>
<g id="Food_Drink20"/>
<g id="Food_Drink19"/>
<g id="Food_Drink18"/>
<g id="Food_Drink17"/>
<g id="Food_Drink16"/>
<g id="Food_Drink15"/>
<g id="Food_Drink14">
<g>
<g>
<path d="M9.24,15.89l-0.75,5.25C8.44,21.52,8.18,21.83,7.82,21.95C7.71,21.98,7.61,22,7.5,22     c-0.26,0-0.52-0.1-0.71-0.29l-4.5-4.5c-0.2599-0.27-0.36-0.67-0.24-1.03s0.43-0.62,0.81-0.67l5.25-0.75     c0.31-0.05,0.63,0.06,0.85,0.28C9.18,15.27,9.28,15.58,9.24,15.89z" fill="#4558A3"/>
</g>
</g>
<g>
<g>
<path d="M21.95,7.82c-0.12,0.36-0.43,0.62-0.81,0.67l-5.25,0.75c-0.05,0.01-0.09,0.01-0.14,0.01     c-0.26,0-0.52-0.1-0.71-0.29c-0.22-0.23-0.32-0.54-0.28-0.85l0.75-5.25c0.05-0.38,0.31-0.69,0.67-0.81s0.76-0.03,1.03,0.24     l4.5,4.5C21.97,7.06,22.07,7.46,21.95,7.82z" fill="#3265A2"/>
</g>
</g>
<g>
<g>
<path d="M18.71,11.21l-7.5,7.5C11.01,18.9,10.76,19,10.5,19s-0.51-0.1-0.71-0.29l-4.5-4.5     c-0.39-0.39-0.39-1.03,0-1.42l7.5-7.5c0.39-0.39,1.03-0.39,1.42,0l4.5,4.5C19.1,10.18,19.1,10.82,18.71,11.21z" fill="#1688C5"/>
</g>
</g>
</g>
<g id="Food_Drink13"/>
<g id="Food_Drink12"/>
<g id="Food_Drink11"/>
<g id="Food_Drink10"/>
<g id="Food_Drink09"/>
<g id="Food_Drink08"/>
<g id="Food_Drink07"/>
<g id="Food_Drink06"/>
<g id="Food_Drink05"/>
<g id="Food_Drink04"/>
<g id="Food_Drink03"/>
<g id="Food_Drink02"/>
<g id="Food_Drink01"/>
</svg>