<?xml version="1.0" ?>
<!DOCTYPE svg  PUBLIC '-//W3C//DTD SVG 1.1//EN'  'http://www.w3.org/Graphics/SVG/1.1/DTD/svg11.dtd'>
<!-- Uploaded to: SVG Repo, www.svgrepo.com, Generator: SVG Repo Mixer Tools -->
<svg width="800px" height="800px" viewBox="0 0 24 24" enable-background="new 0 0 24 24" version="1.1" xml:space="preserve" xmlns="http://www.w3.org/2000/svg" xmlns:xlink="http://www.w3.org/1999/xlink">
<g id="Food_Drink25"/>
<g id="Food_Drink24"/>
<g id="Food_Drink23"/>
<g id="Food_Drink22"/>
<g id="Food_Drink21"/>
<g id="Food_Drink20"/>
<g id="Food_Drink19"/>
<g id="Food_Drink18"/>
<g id="Food_Drink17"/>
<g id="Food_Drink16"/>
<g id="Food_Drink15"/>
<g id="Food_Drink14"/>
<g id="Food_Drink13"/>
<g id="Food_Drink12"/>
<g id="Food_Drink11"/>
<g id="Food_Drink10"/>
<g id="Food_Drink09"/>
<g id="Food_Drink08"/>
<g id="Food_Drink07"/>
<g id="Food_Drink06">
<g>
<g>
<path d="M12,22c-0.5522,0-1-0.4478-1-1v-5c0-0.5522,0.4478-1,1-1s1,0.4478,1,1v5C13,21.5522,12.5522,22,12,22z" fill="#DA8541"/>
</g>
</g>
<g>
<g>
<path d="M18,9v7c0,0.55-0.45,1-1,1H7c-0.55,0-1-0.45-1-1V9c0-0.55,0.45-1,1-1h10C17.55,8,18,8.45,18,9z" fill="#00936B"/>
</g>
</g>
<g>
<path d="M18,8v1c0,0.55-0.45,1-1,1h-2v2c0,0.55-0.45,1-1,1s-1-0.45-1-1v-2H7c-0.55,0-1-0.45-1-1V8    c0-3.31,2.69-6,6-6c1.6,0,3.1,0.62,4.24,1.75C17.38,4.9,18,6.4,18,8z" fill="#FFB841"/>
</g>
</g>
<g id="Food_Drink05"/>
<g id="Food_Drink04"/>
<g id="Food_Drink03"/>
<g id="Food_Drink02"/>
<g id="Food_Drink01"/>
</svg>