<?xml version="1.0" ?>
<!DOCTYPE svg  PUBLIC '-//W3C//DTD SVG 1.1//EN'  'http://www.w3.org/Graphics/SVG/1.1/DTD/svg11.dtd'>
<!-- Uploaded to: SVG Repo, www.svgrepo.com, Generator: SVG Repo Mixer Tools -->
<svg width="800px" height="800px" viewBox="0 0 24 24" enable-background="new 0 0 24 24" version="1.1" xml:space="preserve" xmlns="http://www.w3.org/2000/svg" xmlns:xlink="http://www.w3.org/1999/xlink">
<g id="Food_Drink25"/>
<g id="Food_Drink24"/>
<g id="Food_Drink23"/>
<g id="Food_Drink22"/>
<g id="Food_Drink21"/>
<g id="Food_Drink20"/>
<g id="Food_Drink19"/>
<g id="Food_Drink18"/>
<g id="Food_Drink17"/>
<g id="Food_Drink16"/>
<g id="Food_Drink15"/>
<g id="Food_Drink14"/>
<g id="Food_Drink13"/>
<g id="Food_Drink12"/>
<g id="Food_Drink11"/>
<g id="Food_Drink10"/>
<g id="Food_Drink09"/>
<g id="Food_Drink08"/>
<g id="Food_Drink07"/>
<g id="Food_Drink06"/>
<g id="Food_Drink05"/>
<g id="Food_Drink04"/>
<g id="Food_Drink03">
<g>
<g>
<path d="M17,18v3c0,0.55-0.45,1-1,1H8c-0.55,0-1-0.45-1-1v-3c0-0.55,0.45-1,1-1h8C16.55,17,17,17.45,17,18z" fill="#1688C5"/>
</g>
</g>
<g>
<g>
<path d="M20,11v4c0,2.21-1.79,4-4,4H8c-2.21,0-4-1.79-4-4v-4c0-0.55,0.45-1,1-1h14C19.55,10,20,10.45,20,11z" fill="#3C6D9D"/>
</g>
</g>
<g>
<g>
<path d="M12.0244,8.0005c-0.0967,0-0.1953-0.0142-0.2925-0.0439c-0.5283-0.1611-0.8257-0.7202-0.6646-1.2485     c0.0991-0.335,0.1821-0.9854,0.0415-1.3042c-0.6401-1.4512-0.0488-2.7119,0.0205-2.8511     c0.2466-0.4941,0.8467-0.6948,1.3418-0.4473c0.4897,0.2451,0.6909,0.8374,0.4536,1.3286     c-0.019,0.0425-0.2451,0.5742,0.0142,1.1621c0.4966,1.1255,0.0894,2.5386,0.0415,2.6958C12.8486,7.7227,12.4526,8,12.0244,8.0005     z" fill="#FFB132"/>
</g>
</g>
<g>
<g>
<path d="M7.8403,8.0005c-0.0967,0-0.1948-0.0142-0.292-0.0439C7.02,7.7954,6.7222,7.2368,6.8833,6.7085     C6.9824,6.373,7.0654,5.7227,6.9248,5.4033C6.2847,3.9526,6.876,2.6919,6.9453,2.5527C7.1924,2.0586,7.792,1.8579,8.2871,2.1055     c0.4897,0.2451,0.6904,0.8374,0.4536,1.3286c-0.019,0.0425-0.2451,0.5742,0.0142,1.1621     c0.4956,1.1255,0.0894,2.5381,0.0415,2.6953C8.665,7.7227,8.2686,8,7.8403,8.0005z" fill="#FFB132"/>
</g>
</g>
<g>
<g>
<path d="M16.208,8.0005c-0.0967,0-0.1953-0.0142-0.292-0.0439c-0.5283-0.1616-0.8262-0.7207-0.6641-1.249     c0.0986-0.335,0.1826-0.9849,0.041-1.3032c-0.6396-1.4517-0.0488-2.7124,0.0205-2.8516c0.248-0.4937,0.8477-0.6948,1.3418-0.4473     c0.4893,0.2451,0.6904,0.8374,0.4531,1.3286c-0.0186,0.0425-0.2451,0.5742,0.0146,1.1621     c0.4971,1.1255,0.0898,2.5386,0.041,2.6963C17.0322,7.7231,16.6367,8,16.208,8.0005z" fill="#FFB132"/>
</g>
</g>
</g>
<g id="Food_Drink02"/>
<g id="Food_Drink01"/>
</svg>