<?xml version="1.0" ?>
<!DOCTYPE svg  PUBLIC '-//W3C//DTD SVG 1.1//EN'  'http://www.w3.org/Graphics/SVG/1.1/DTD/svg11.dtd'>
<!-- Uploaded to: SVG Repo, www.svgrepo.com, Generator: SVG Repo Mixer Tools -->
<svg width="800px" height="800px" viewBox="0 0 24 24" enable-background="new 0 0 24 24" version="1.1" xml:space="preserve" xmlns="http://www.w3.org/2000/svg" xmlns:xlink="http://www.w3.org/1999/xlink">
<g id="Food_Drink25"/>
<g id="Food_Drink24"/>
<g id="Food_Drink23"/>
<g id="Food_Drink22"/>
<g id="Food_Drink21"/>
<g id="Food_Drink20"/>
<g id="Food_Drink19"/>
<g id="Food_Drink18"/>
<g id="Food_Drink17"/>
<g id="Food_Drink16"/>
<g id="Food_Drink15"/>
<g id="Food_Drink14"/>
<g id="Food_Drink13"/>
<g id="Food_Drink12"/>
<g id="Food_Drink11"/>
<g id="Food_Drink10"/>
<g id="Food_Drink09"/>
<g id="Food_Drink08"/>
<g id="Food_Drink07"/>
<g id="Food_Drink06"/>
<g id="Food_Drink05"/>
<g id="Food_Drink04"/>
<g id="Food_Drink03"/>
<g id="Food_Drink02">
<g>
<g>
<path d="M10,6v12c0,0.55-0.45,1-1,1H7c-1.65,0-3-1.35-3-3V8c0-1.65,1.35-3,3-3h2C9.55,5,10,5.45,10,6z" fill="#FFB132"/>
</g>
</g>
<g>
<g>
<path d="M20,8v8c0,1.65-1.35,3-3,3h-2c-0.55,0-1-0.45-1-1V6c0-0.55,0.45-1,1-1h2C18.65,5,20,6.35,20,8z" fill="#FFAE3E"/>
</g>
</g>
<g>
<g>
<path d="M16,6v12c0,2.21-1.79,4-4,4c-1.07,0-2.07-0.42-2.83-1.17C8.42,20.07,8,19.07,8,18V6c0-2.21,1.79-4,4-4     c1.07,0,2.07,0.42,2.83,1.17C15.58,3.93,16,4.93,16,6z" fill="#D34A4B"/>
</g>
</g>
</g>
<g id="Food_Drink01"/>
</svg>