<?xml version="1.0" ?>
<!DOCTYPE svg  PUBLIC '-//W3C//DTD SVG 1.1//EN'  'http://www.w3.org/Graphics/SVG/1.1/DTD/svg11.dtd'>
<!-- Uploaded to: SVG Repo, www.svgrepo.com, Generator: SVG Repo Mixer Tools -->
<svg width="800px" height="800px" viewBox="0 0 24 24" enable-background="new 0 0 24 24" version="1.1" xml:space="preserve" xmlns="http://www.w3.org/2000/svg" xmlns:xlink="http://www.w3.org/1999/xlink">
<g id="Food_Drink25"/>
<g id="Food_Drink24"/>
<g id="Food_Drink23"/>
<g id="Food_Drink22"/>
<g id="Food_Drink21"/>
<g id="Food_Drink20"/>
<g id="Food_Drink19"/>
<g id="Food_Drink18"/>
<g id="Food_Drink17"/>
<g id="Food_Drink16"/>
<g id="Food_Drink15"/>
<g id="Food_Drink14"/>
<g id="Food_Drink13"/>
<g id="Food_Drink12"/>
<g id="Food_Drink11"/>
<g id="Food_Drink10">
<g>
<g>
<path d="M18.66,17.3C17.23,18.37,14.74,19,12,19s-5.23-0.63-6.66-1.7c-0.3701-0.28-0.5-0.78-0.31-1.21l6.06-13.5     C11.25,2.23,11.61,2,12,2s0.75,0.23,0.91,0.59l6.06,13.5C19.16,16.52,19.03,17.02,18.66,17.3z" fill="#D34A4B"/>
</g>
</g>
<g>
<g>
<path d="M20,18c0,2.63-4.02,4-8,4s-8-1.37-8-4c0-0.6,0.23-1.49,1.35-2.31c0.35-0.26,0.84-0.25,1.19,0.01     C7.6,16.49,9.75,17,12,17s4.4-0.51,5.46-1.3c0.35-0.26,0.84-0.27,1.19-0.01C19.77,16.51,20,17.4,20,18z" fill="#FF963E"/>
</g>
</g>
<g>
<g>
<path d="M11,15c-0.2559,0-0.5117-0.0977-0.707-0.293c-0.3906-0.3906-0.3906-1.0234,0-1.4141l2-2     c0.3906-0.3906,1.0234-0.3906,1.4141,0s0.3906,1.0234,0,1.4141l-2,2C11.5117,14.9023,11.2559,15,11,15z" fill="#F96958"/>
</g>
</g>
</g>
<g id="Food_Drink09"/>
<g id="Food_Drink08"/>
<g id="Food_Drink07"/>
<g id="Food_Drink06"/>
<g id="Food_Drink05"/>
<g id="Food_Drink04"/>
<g id="Food_Drink03"/>
<g id="Food_Drink02"/>
<g id="Food_Drink01"/>
</svg>