<?xml version="1.0" encoding="utf-8"?>

<!-- Uploaded to: SVG Repo, www.svgrepo.com, Generator: SVG Repo Mixer Tools -->
<svg fill="#000000" height="800px" width="800px" version="1.1" id="Icons" xmlns="http://www.w3.org/2000/svg" xmlns:xlink="http://www.w3.org/1999/xlink" 
	 viewBox="0 0 32 32" xml:space="preserve">
<path d="M16,2C8.3,2,2,8.3,2,16s6.3,14,14,14s14-6.3,14-14S23.7,2,16,2z M22,17h-8.6l2.3,2.3c0.4,0.4,0.4,1,0,1.4
	C15.5,20.9,15.3,21,15,21s-0.5-0.1-0.7-0.3l-4-4c-0.1-0.1-0.2-0.2-0.2-0.3c-0.1-0.2-0.1-0.5,0-0.8c0.1-0.1,0.1-0.2,0.2-0.3l4-4
	c0.4-0.4,1-0.4,1.4,0s0.4,1,0,1.4L13.4,15H22c0.6,0,1,0.4,1,1S22.6,17,22,17z"/>
</svg>