<?xml version="1.0" encoding="utf-8"?>

<!-- Uploaded to: SVG Repo, www.svgrepo.com, Generator: SVG Repo Mixer Tools -->
<svg fill="#000000" height="800px" width="800px" version="1.1" id="Icons" xmlns="http://www.w3.org/2000/svg" xmlns:xlink="http://www.w3.org/1999/xlink" 
	 viewBox="0 0 32 32" xml:space="preserve">
<path d="M16,2C8.3,2,2,8.3,2,16s6.3,14,14,14s14-6.3,14-14S23.7,2,16,2z M21.7,16.7l-4,4C17.5,20.9,17.3,21,17,21s-0.5-0.1-0.7-0.3
	c-0.4-0.4-0.4-1,0-1.4l2.3-2.3H10c-0.6,0-1-0.4-1-1s0.4-1,1-1h8.6l-2.3-2.3c-0.4-0.4-0.4-1,0-1.4s1-0.4,1.4,0l4,4
	c0.1,0.1,0.2,0.2,0.2,0.3c0.1,0.2,0.1,0.5,0,0.8C21.9,16.5,21.8,16.6,21.7,16.7z"/>
</svg>