<svg xmlns="http://www.w3.org/2000/svg" width="552" height="162" viewBox="0 0 552 162">
<g>
<path d="M 57.04,14.09 L 59.20,14.25 L 63.60,14.68 L 65.88,15.05 L 68.69,15.56 L 70.36,15.93 L 71.11,16.15 L 73.95,17.09 L 75.22,17.76 L 77.73,19.26 L 79.05,20.33 L 80.40,21.45 L 81.13,22.11 L 82.62,23.50 L 83.45,24.30 L 86.12,27.00 L 87.60,28.62 L 88.21,29.38 L 89.34,30.90 L 89.79,31.66 L 90.62,33.20 L 90.95,34.02 L 91.53,35.72 L 91.75,36.67 L 92.14,38.65 L 92.28,39.79 L 92.52,42.19 L 92.61,43.59 L 92.76,46.53 L 92.82,48.25 L 93.21,60.00 L 72.00,60.00 L 71.88,54.00 L 71.74,49.54 L 71.69,48.41 L 71.66,48.01 L 71.61,47.35 L 71.59,47.25 L 70.80,44.30 L 70.18,42.69 L 69.80,41.99 L 68.95,40.66 L 68.41,40.03 L 67.23,38.77 L 66.47,38.11 L 64.33,36.40 L 63.06,35.67 L 62.31,35.47 L 60.69,35.14 L 59.55,35.08 L 58.35,35.03 L 57.63,35.02 L 56.12,35.00 L 55.22,35.00 L 51.86,35.10 L 49.89,35.26 L 49.02,35.40 L 47.36,35.72 L 46.64,35.94 L 45.25,36.43 L 44.65,36.75 L 43.51,37.44 L 43.01,37.86 L 42.06,38.77 L 41.64,39.30 L 40.85,40.45 L 40.50,41.11 L 39.83,42.51 L 39.52,43.31 L 39.01,44.85 L 38.73,45.99 L 38.62,46.68 L 38.42,48.16 L 38.34,49.08 L 38.20,51.06 L 38.16,52.31 L 38.08,55.00 L 38.06,56.66 L 38.03,60.23 L 38.03,62.40 L 38.04,64.65 L 38.04,65.88 L 38.06,68.42 L 38.07,69.80 L 38.10,72.66 L 38.11,74.22 L 38.15,77.41 L 38.17,79.15 L 38.28,87.45 L 38.36,92.27 L 38.41,94.35 L 38.50,98.29 L 38.56,99.96 L 38.68,103.10 L 38.74,104.40 L 38.88,106.83 L 38.96,107.81 L 39.13,109.60 L 39.22,110.29 L 39.42,111.54 L 39.53,111.98 L 39.77,112.76 L 39.90,113.00 L 42.29,116.36 L 44.20,118.21 L 45.28,118.94 L 47.51,120.27 L 48.71,120.73 L 51.15,121.52 L 52.42,121.71 L 54.99,121.94 L 56.28,121.84 L 58.87,121.51 L 60.14,121.12 L 62.64,120.20 L 63.83,119.52 L 66.16,118.00 L 67.22,117.01 L 68.14,115.90 L 68.73,114.94 L 69.02,114.36 L 70.10,111.84 L 70.54,110.34 L 71.35,107.23 L 71.60,105.61 L 72.00,102.37 L 72.00,96.00 L 94.29,96.00 L 93.72,105.63 L 93.53,108.39 L 93.39,110.02 L 93.31,110.75 L 92.95,113.45 L 92.68,114.60 L 92.09,116.81 L 91.68,117.91 L 90.75,120.12 L 90.13,121.38 L 87.92,125.39 L 86.32,127.82 L 85.45,128.92 L 83.66,131.05 L 82.69,132.00 L 80.70,133.84 L 79.62,134.65 L 77.39,136.22 L 76.18,136.90 L 73.70,138.21 L 72.35,138.78 L 69.59,139.85 L 68.10,140.30 L 65.04,141.16 L 63.38,141.51 L 61.42,141.92 L 60.57,142.08 L 58.94,142.38 L 58.21,142.49 L 55.51,142.81 L 54.26,142.81 L 51.77,142.69 L 50.32,142.47 L 48.82,142.22 L 47.97,142.05 L 46.19,141.69 L 45.17,141.47 L 39.43,139.78 L 35.86,138.29 L 34.22,137.36 L 31.02,135.39 L 29.57,134.23 L 26.77,131.82 L 25.52,130.45 L 23.14,127.61 L 22.11,126.04 L 20.17,122.80 L 19.37,121.05 L 17.89,117.44 L 17.34,115.51 L 16.35,111.56 L 16.05,109.47 L 15.81,107.27 L 15.67,105.39 L 15.60,104.28 L 15.48,101.93 L 15.43,100.61 L 15.33,97.87 L 15.29,96.38 L 15.14,90.13 L 15.10,86.72 L 15.04,79.75 L 15.04,76.21 L 15.07,69.15 L 15.12,65.80 L 15.17,62.49 L 15.20,60.92 L 15.27,57.84 L 15.32,56.41 L 15.41,53.64 L 15.46,52.40 L 15.58,50.01 L 15.64,48.98 L 15.78,47.05 L 15.85,46.29 L 16.01,44.90 L 16.09,44.43 L 17.41,39.24 L 18.63,35.74 L 19.36,34.08 L 20.90,30.84 L 21.74,29.42 L 23.47,26.76 L 24.35,25.74 L 27.85,22.32 L 30.46,20.33 L 31.89,19.48 L 34.85,17.88 L 36.45,17.23 L 39.73,16.03 L 41.48,15.58 L 45.07,14.77 L 46.98,14.52 L 50.85,14.13 L 52.89,14.08 M 231.62,14.07 L 234.22,14.11 L 235.61,14.18 L 243.39,15.13 L 248.07,16.30 L 250.17,17.17 L 254.21,19.08 L 256.01,20.31 L 259.47,22.98 L 260.99,24.60 L 264.24,28.55 L 265.87,31.16 L 266.47,32.56 L 267.53,35.45 L 267.89,37.12 L 268.51,40.62 L 268.70,42.72 L 268.91,45.57 L 268.92,47.14 L 268.85,47.78 L 268.64,48.95 L 268.42,49.41 L 267.92,50.25 L 267.53,50.57 L 266.67,51.12 L 266.08,51.32 L 264.78,51.65 L 263.95,51.75 L 262.16,51.92 L 261.05,51.95 L 258.69,52.00 L 257.28,52.00 L 254.32,51.99 L 252.72,51.96 L 252.09,51.92 L 250.93,51.80 L 250.49,51.70 L 249.68,51.46 L 249.39,51.27 L 248.86,50.85 L 248.68,50.55 L 248.35,49.90 L 248.23,49.47 L 248.03,48.54 L 247.94,47.96 L 247.78,46.70 L 247.69,45.94 L 246.97,42.40 L 246.22,40.49 L 245.67,39.71 L 244.44,38.24 L 243.62,37.63 L 241.82,36.46 L 240.67,35.94 L 236.78,34.58 L 234.25,34.13 L 232.99,34.14 L 230.47,34.29 L 229.19,34.59 L 226.62,35.35 L 225.29,35.96 L 222.44,37.65 L 221.11,38.99 L 220.69,39.87 L 219.99,41.78 L 219.82,43.05 L 219.68,44.38 L 219.65,45.14 L 219.62,46.72 L 219.63,47.63 L 219.82,50.37 L 220.11,52.00 L 220.38,52.74 L 220.99,54.19 L 221.44,54.87 L 222.44,56.20 L 223.12,56.86 L 224.60,58.17 L 225.55,58.85 L 227.59,60.22 L 228.85,60.95 L 231.54,62.45 L 233.15,63.28 L 236.56,65.00 L 238.57,65.96 L 245.08,69.18 L 248.85,71.14 L 250.47,72.04 L 253.56,73.82 L 254.88,74.66 L 257.38,76.32 L 258.45,77.13 L 260.47,78.76 L 261.33,79.58 L 262.96,81.24 L 263.66,82.11 L 264.99,83.88 L 265.58,84.83 L 266.72,86.78 L 267.24,87.84 L 268.24,89.92 L 268.79,91.14 L 269.01,91.69 L 269.77,93.82 L 269.99,94.91 L 270.34,97.18 L 270.41,98.63 L 270.47,100.15 L 270.48,101.03 L 270.50,102.89 L 270.50,103.98 L 270.12,110.95 L 269.49,115.25 L 268.99,117.23 L 267.86,121.07 L 267.10,122.82 L 265.47,126.20 L 264.46,127.71 L 262.32,130.62 L 261.07,131.91 L 258.42,134.36 L 256.92,135.41 L 253.77,137.40 L 252.01,138.22 L 248.37,139.74 L 246.35,140.33 L 243.44,141.13 L 242.04,141.43 L 239.30,141.98 L 237.98,142.15 L 235.37,142.44 L 234.10,142.48 L 231.58,142.50 L 230.35,142.41 L 227.89,142.16 L 226.67,141.93 L 224.22,141.41 L 223.00,141.05 L 220.53,140.26 L 219.28,139.76 L 216.75,138.69 L 215.45,138.05 L 211.32,135.72 L 208.82,133.99 L 207.69,133.04 L 205.52,131.08 L 204.56,130.01 L 202.73,127.81 L 201.93,126.62 L 200.43,124.18 L 199.80,122.87 L 198.62,120.19 L 198.15,118.76 L 197.30,115.83 L 197.00,114.27 L 196.47,111.08 L 196.33,109.40 L 195.70,101.93 L 206.59,102.21 L 217.48,102.50 L 218.13,107.10 L 219.13,111.59 L 220.09,114.12 L 220.73,115.18 L 222.12,117.15 L 222.99,117.94 L 224.86,119.42 L 225.98,119.99 L 228.65,121.12 L 230.42,121.64 L 231.29,121.78 L 233.02,121.98 L 233.88,121.97 L 235.57,121.86 L 236.39,121.69 L 238.02,121.27 L 238.81,120.95 L 240.37,120.23 L 241.12,119.75 L 242.60,118.73 L 243.31,118.10 L 244.69,116.78 L 245.34,116.01 L 246.96,113.61 L 247.78,111.87 L 248.05,110.96 L 248.52,109.12 L 248.62,108.18 L 248.73,106.29 L 248.66,105.34 L 248.43,103.47 L 248.19,102.56 L 247.62,100.77 L 247.22,99.92 L 246.32,98.28 L 245.75,97.53 L 244.52,96.09 L 243.79,95.47 L 242.86,94.80 L 241.99,94.23 L 241.44,93.90 L 240.28,93.21 L 239.60,92.82 L 238.20,92.02 L 237.41,91.60 L 234.10,89.81 L 232.26,88.87 L 228.49,86.96 L 226.56,86.02 L 222.82,84.19 L 220.58,83.06 L 219.58,82.53 L 217.66,81.50 L 216.79,81.01 L 215.12,80.05 L 214.37,79.59 L 211.58,77.78 L 210.41,76.88 L 208.19,75.06 L 207.18,74.08 L 204.58,71.43 L 203.12,69.75 L 202.50,68.93 L 201.36,67.29 L 200.89,66.45 L 200.02,64.75 L 199.69,63.85 L 199.07,61.99 L 198.84,60.97 L 198.43,58.86 L 198.29,57.68 L 198.05,55.23 L 197.99,53.84 L 197.89,50.94 L 197.89,49.29 L 197.92,44.86 L 198.00,42.04 L 198.06,40.79 L 198.20,38.42 L 198.28,37.52 L 198.46,35.91 L 198.57,35.50 L 200.23,31.31 L 201.95,28.40 L 203.04,26.98 L 205.35,24.19 L 206.65,22.94 L 209.32,20.58 L 210.71,19.67 L 215.93,16.82 L 219.57,15.45 L 221.55,15.02 L 225.65,14.30 L 227.97,14.17 L 230.35,14.07 M 413.47,119.10 L 413.76,119.49 L 413.91,119.85 L 414.21,120.67 L 414.37,121.25 L 414.67,123.01 L 414.82,124.55 L 414.86,125.44 L 414.98,129.32 L 414.95,131.33 L 414.89,133.34 L 414.84,134.27 L 414.73,136.09 L 414.65,136.87 L 414.48,138.33 L 414.38,138.86 L 414.15,139.79 L 414.02,140.00 L 413.75,140.30 L 413.46,140.43 L 412.78,140.68 L 412.23,140.78 L 410.98,140.97 L 410.08,141.05 L 408.08,141.20 L 406.75,141.26 L 403.85,141.36 L 402.01,141.40 L 400.09,141.45 L 399.03,141.46 L 396.82,141.50 L 395.60,141.51 L 393.08,141.54 L 391.69,141.55 L 388.83,141.57 L 387.27,141.58 L 384.06,141.60 L 382.32,141.61 L 378.73,141.63 L 376.79,141.63 L 369.44,141.65 L 364.72,141.65 L 362.49,141.65 L 358.11,141.64 L 356.08,141.63 L 352.15,141.61 L 350.38,141.60 L 347.00,141.57 L 345.55,141.55 L 342.82,141.51 L 341.74,141.49 L 339.78,141.44 L 339.12,141.41 L 338.03,141.36 L 337.85,141.33 L 335.85,140.52 L 334.88,139.66 L 334.76,139.19 L 334.81,138.67 L 335.12,138.38 L 335.49,138.27 L 336.38,138.05 L 337.13,137.97 L 338.84,137.81 L 340.07,137.75 L 341.37,137.70 L 342.13,137.68 L 343.73,137.63 L 344.65,137.61 L 346.56,137.58 L 347.65,137.57 L 349.92,137.54 L 351.19,137.53 L 353.84,137.51 L 355.31,137.51 L 358.36,137.49 L 360.05,137.49 L 363.53,137.48 L 365.44,137.48 L 369.39,137.47 L 371.54,137.47 L 376.85,137.46 L 380.14,137.46 L 381.67,137.45 L 384.65,137.44 L 386.03,137.43 L 388.71,137.41 L 389.94,137.40 L 392.34,137.37 L 393.43,137.36 L 395.56,137.33 L 396.53,137.31 L 400.14,137.23 L 401.60,137.18 L 404.30,137.07 L 405.35,137.00 L 407.25,136.85 L 407.94,136.76 L 409.16,136.58 L 409.56,136.46 L 410.22,136.23 L 410.38,136.10 L 411.16,135.07 L 411.53,134.08 L 411.66,133.37 L 411.87,131.79 L 411.92,130.72 L 412.00,128.39 L 412.00,126.88 L 412.05,124.26 L 412.13,122.76 L 412.20,122.14 L 412.33,120.97 L 412.42,120.53 L 412.61,119.73 L 412.72,119.47 L 412.95,119.05 L 413.07,118.98 L 413.33,118.96 M 179.00,22.87 L 178.82,28.65 L 178.69,30.40 L 178.62,31.12 L 178.46,32.45 L 178.38,32.87 L 177.75,36.00 L 137.00,36.00 L 137.00,67.00 L 153.80,67.00 L 157.91,67.02 L 160.36,67.05 L 161.44,67.07 L 163.52,67.12 L 164.43,67.16 L 166.15,67.24 L 166.89,67.29 L 168.26,67.39 L 168.83,67.45 L 169.88,67.58 L 170.28,67.66 L 171.02,67.82 L 171.27,67.91 L 171.70,68.10 L 171.80,68.20 L 172.23,68.96 L 172.48,69.74 L 172.57,70.23 L 172.89,72.49 L 172.94,73.91 L 172.97,76.90 L 172.88,78.50 L 172.61,81.72 L 172.36,83.25 L 171.74,87.00 L 136.95,87.00 L 137.23,103.25 L 137.50,119.50 L 158.29,119.77 L 179.07,120.04 L 178.79,129.77 L 178.50,139.50 L 115.00,140.03 L 115.00,16.00 L 179.00,16.00 M 312.00,140.00 L 291.00,140.00 L 291.00,16.00 L 312.00,16.00 M 524.85,41.22 L 523.02,43.98 L 521.67,46.02 L 520.94,47.12 L 517.91,51.69 L 516.32,54.11 L 513.11,58.97 L 511.57,61.31 L 508.56,65.88 L 507.26,67.85 L 497.84,82.21 L 503.34,90.35 L 504.64,92.28 L 505.66,93.78 L 506.23,94.62 L 508.68,98.21 L 510.05,100.22 L 512.86,104.33 L 514.29,106.42 L 517.14,110.57 L 518.47,112.50 L 521.28,116.59 L 522.99,119.08 L 523.76,120.20 L 525.25,122.38 L 525.92,123.36 L 527.22,125.26 L 527.79,126.11 L 528.90,127.74 L 529.39,128.46 L 530.32,129.85 L 530.72,130.46 L 532.19,132.69 L 532.72,133.52 L 533.64,135.02 L 533.93,135.55 L 534.42,136.48 L 534.53,136.80 L 534.68,137.34 L 534.67,137.52 L 534.60,137.84 L 534.52,137.97 L 533.59,138.38 L 532.37,138.61 L 531.52,138.70 L 529.67,138.87 L 528.58,138.92 L 526.30,139.00 L 525.05,139.00 L 522.65,138.98 L 521.25,138.95 L 520.64,138.92 L 518.43,138.78 L 517.61,138.64 L 516.13,138.33 L 515.58,138.11 L 514.59,137.60 L 514.18,137.25 L 513.24,136.27 L 512.39,135.25 L 511.85,134.57 L 510.72,133.08 L 510.05,132.18 L 508.64,130.26 L 507.84,129.13 L 506.18,126.79 L 505.26,125.46 L 503.36,122.72 L 502.32,121.20 L 500.20,118.07 L 499.05,116.37 L 496.71,112.88 L 495.47,111.00 L 491.59,105.43 L 490.32,103.71 L 489.76,102.98 L 488.71,101.63 L 488.33,101.18 L 485.50,97.85 L 479.13,107.18 L 477.69,109.28 L 476.61,110.84 L 476.03,111.68 L 473.58,115.20 L 472.28,117.07 L 469.64,120.83 L 468.35,122.65 L 465.84,126.20 L 464.73,127.75 L 456.70,139.00 L 447.41,139.00 L 443.65,138.92 L 441.46,138.80 L 440.58,138.70 L 438.96,138.50 L 438.43,138.38 L 437.57,138.11 L 437.48,137.96 L 437.69,137.00 L 438.27,135.75 L 438.79,134.83 L 439.98,132.78 L 440.80,131.45 L 442.60,128.58 L 443.73,126.83 L 446.14,123.13 L 447.59,120.96 L 449.07,118.73 L 449.87,117.54 L 451.50,115.11 L 452.38,113.81 L 454.18,111.15 L 455.14,109.75 L 457.10,106.88 L 458.14,105.36 L 460.26,102.28 L 461.38,100.65 L 463.66,97.34 L 464.86,95.61 L 473.78,82.71 L 471.06,78.11 L 470.22,76.75 L 469.41,75.46 L 468.89,74.64 L 467.77,72.91 L 467.11,71.90 L 465.74,69.79 L 464.98,68.62 L 463.40,66.21 L 462.55,64.92 L 460.80,62.27 L 459.89,60.89 L 456.12,55.20 L 454.17,52.29 L 448.67,43.97 L 447.02,41.44 L 446.26,40.27 L 444.80,38.01 L 444.16,37.00 L 442.94,35.07 L 442.43,34.25 L 441.48,32.71 L 441.12,32.11 L 440.48,31.03 L 440.29,30.68 L 440.00,30.11 L 440.00,30.04 L 440.71,29.60 L 441.87,29.36 L 442.77,29.27 L 444.77,29.12 L 446.06,29.07 L 448.82,29.00 L 460.91,29.00 L 468.47,40.56 L 475.04,50.69 L 477.11,53.91 L 477.99,55.30 L 478.84,56.64 L 479.21,57.23 L 479.91,58.35 L 480.20,58.81 L 481.84,61.44 L 482.82,63.01 L 483.23,63.65 L 483.97,64.83 L 484.21,65.21 L 484.62,65.84 L 484.66,65.89 L 485.01,66.02 L 485.35,65.91 L 485.56,65.76 L 486.56,64.93 L 487.22,64.17 L 488.66,62.44 L 489.51,61.26 L 491.30,58.72 L 492.29,57.18 L 493.28,55.66 L 494.05,54.48 L 494.48,53.82 L 496.31,51.03 L 497.33,49.48 L 501.61,43.00 L 503.55,40.09 L 510.60,29.50 L 521.80,29.22 L 533.01,28.93 Z" fill="rgb(2,2,2)"/>
<path d="M 414.86,134.87 L 414.80,135.87 L 414.66,137.77 L 414.54,138.48 L 414.26,139.72 L 414.07,140.00 L 413.79,140.30 L 413.50,140.43 L 412.81,140.68 L 412.25,140.78 L 410.99,140.97 L 410.09,141.05 L 408.93,141.13 L 410.08,141.05 L 410.98,140.97 L 412.23,140.78 L 412.78,140.68 L 413.46,140.43 L 413.75,140.30 L 414.02,140.00 L 414.15,139.79 L 414.38,138.86 L 414.48,138.33 L 414.65,136.87 L 414.73,136.09 L 414.84,134.27 L 414.87,133.74 M 388.96,113.39 L 390.54,113.40 L 393.59,113.43 L 394.91,113.45 L 397.41,113.50 L 398.41,113.53 L 400.25,113.61 L 400.89,113.65 L 403.70,113.87 L 405.26,114.00 L 405.90,114.07 L 407.10,114.22 L 407.58,114.30 L 408.46,114.47 L 408.81,114.57 L 409.96,115.01 L 410.29,115.33 L 410.83,116.04 L 411.02,116.55 L 412.01,118.26 L 412.82,119.11 L 412.90,119.13 L 412.72,119.47 L 412.61,119.73 L 412.42,120.53 L 412.33,120.97 L 412.20,122.14 L 412.13,122.76 L 412.05,124.26 L 412.00,126.88 L 412.00,128.39 L 411.92,130.72 L 411.87,131.79 L 411.66,133.37 L 411.53,134.08 L 411.16,135.07 L 410.38,136.10 L 410.22,136.23 L 409.56,136.46 L 409.16,136.58 L 407.94,136.76 L 407.25,136.85 L 405.35,137.00 L 404.30,137.07 L 401.60,137.18 L 400.14,137.23 L 396.53,137.31 L 395.56,137.33 L 393.43,137.36 L 392.34,137.37 L 389.94,137.40 L 388.71,137.41 L 386.03,137.43 L 384.65,137.44 L 381.67,137.45 L 380.14,137.46 L 376.85,137.46 L 371.54,137.47 L 369.39,137.47 L 365.44,137.48 L 363.53,137.48 L 360.05,137.49 L 358.36,137.49 L 355.31,137.51 L 353.84,137.51 L 351.19,137.53 L 349.92,137.54 L 347.65,137.57 L 346.56,137.58 L 344.65,137.61 L 343.73,137.63 L 342.13,137.68 L 341.37,137.70 L 340.07,137.75 L 338.84,137.81 L 337.13,137.97 L 336.38,138.05 L 335.49,138.27 L 335.12,138.38 L 334.81,138.67 L 334.76,139.19 L 334.84,139.51 L 334.84,139.51 L 334.70,138.94 L 333.90,137.57 L 333.12,137.00 L 332.71,137.00 L 331.83,136.63 L 331.32,136.04 L 331.11,135.58 L 330.72,134.56 L 330.56,133.91 L 330.28,132.51 L 330.19,131.69 L 330.03,129.97 L 330.00,129.00 L 329.96,127.00 L 330.00,125.91 L 330.27,121.33 L 330.61,118.80 L 331.23,114.32 L 361.42,113.66 L 373.88,113.45 L 377.92,113.41 L 379.86,113.40 L 383.68,113.38 L 385.47,113.38 M 382.84,114.77 L 378.62,114.78 L 376.27,114.79 L 371.40,114.82 L 368.70,114.83 L 361.68,114.87 L 357.19,114.92 L 355.08,114.94 L 350.96,114.99 L 349.07,115.03 L 345.40,115.09 L 343.78,115.13 L 340.67,115.20 L 339.36,115.24 L 336.90,115.32 L 335.96,115.36 L 334.26,115.45 L 333.72,115.49 L 332.87,115.58 L 332.80,115.62 L 332.40,116.48 L 332.21,117.58 L 332.16,118.36 L 332.09,120.09 L 332.09,121.17 L 332.14,123.45 L 332.21,124.77 L 332.35,127.10 L 332.45,128.45 L 332.51,129.03 L 332.77,131.11 L 332.94,131.85 L 333.32,133.15 L 333.58,133.59 L 334.15,134.36 L 334.52,134.64 L 334.97,134.90 L 335.34,135.01 L 336.20,135.22 L 336.81,135.30 L 338.16,135.47 L 339.06,135.54 L 341.02,135.66 L 342.25,135.71 L 344.91,135.79 L 346.54,135.82 L 350.00,135.87 L 352.06,135.89 L 356.42,135.91 L 358.98,135.91 L 361.60,135.91 L 363.01,135.91 L 365.89,135.91 L 367.44,135.90 L 379.93,135.81 L 383.87,135.76 L 385.72,135.73 L 389.34,135.67 L 390.99,135.64 L 394.20,135.57 L 395.61,135.53 L 398.30,135.45 L 399.41,135.41 L 401.49,135.33 L 402.26,135.28 L 403.62,135.20 L 404.00,135.15 L 409.50,134.50 L 409.50,126.01 L 409.52,122.08 L 409.42,119.99 L 409.19,119.17 L 408.59,117.69 L 407.97,117.15 L 407.28,116.63 L 406.84,116.42 L 405.88,116.01 L 405.28,115.85 L 403.99,115.54 L 403.21,115.42 L 401.55,115.20 L 400.57,115.12 L 398.49,114.97 L 397.28,114.92 L 394.74,114.84 L 393.28,114.81 L 390.22,114.77 L 388.49,114.77 L 384.87,114.76 Z" fill="rgb(230,225,93)"/>
<path d="M 388.49,114.77 L 390.22,114.77 L 393.28,114.81 L 394.74,114.84 L 397.28,114.92 L 398.49,114.97 L 400.57,115.12 L 401.55,115.20 L 403.21,115.42 L 403.99,115.54 L 405.28,115.85 L 405.88,116.01 L 406.84,116.42 L 407.28,116.63 L 407.97,117.15 L 408.59,117.69 L 409.19,119.17 L 409.42,119.99 L 409.52,122.08 L 409.50,126.01 L 409.50,134.50 L 404.00,135.15 L 403.62,135.20 L 402.26,135.28 L 401.49,135.33 L 399.41,135.41 L 398.30,135.45 L 395.61,135.53 L 394.20,135.57 L 390.99,135.64 L 389.34,135.67 L 385.72,135.73 L 383.87,135.76 L 379.93,135.81 L 367.44,135.90 L 365.89,135.91 L 363.01,135.91 L 361.60,135.91 L 358.98,135.91 L 356.42,135.91 L 352.06,135.89 L 350.00,135.87 L 346.54,135.82 L 344.91,135.79 L 342.25,135.71 L 341.02,135.66 L 339.06,135.54 L 338.16,135.47 L 336.81,135.30 L 336.20,135.22 L 335.34,135.01 L 334.97,134.90 L 334.52,134.64 L 334.15,134.36 L 333.58,133.59 L 333.32,133.15 L 332.94,131.85 L 332.77,131.11 L 332.51,129.03 L 332.45,128.45 L 332.35,127.10 L 332.21,124.77 L 332.14,123.45 L 332.09,121.17 L 332.09,120.09 L 332.16,118.36 L 332.21,117.58 L 332.40,116.48 L 332.80,115.62 L 332.87,115.58 L 333.72,115.49 L 334.26,115.45 L 335.96,115.36 L 336.90,115.32 L 339.36,115.24 L 340.67,115.20 L 343.78,115.13 L 345.40,115.09 L 349.07,115.03 L 350.96,114.99 L 355.08,114.94 L 357.19,114.92 L 361.68,114.87 L 368.70,114.83 L 371.40,114.82 L 376.27,114.79 L 378.62,114.78 L 382.84,114.77 L 384.87,114.76 Z" fill="rgb(246,225,18)"/>
<path d="M 0.00,81.00 L 0.00,0.00 L 276.00,0.00 L 552.00,0.00 L 552.00,81.00 L 552.00,162.00 L 276.00,162.00 L 0.00,162.00 L 0.00,81.00 M 63.38,141.51 L 65.04,141.16 L 68.10,140.30 L 69.59,139.85 L 72.35,138.78 L 73.70,138.21 L 76.18,136.90 L 77.39,136.22 L 79.62,134.65 L 80.70,133.84 L 82.69,132.00 L 83.66,131.05 L 85.45,128.92 L 86.32,127.82 L 87.92,125.39 L 90.13,121.38 L 90.75,120.12 L 91.68,117.91 L 92.09,116.81 L 92.68,114.60 L 92.95,113.45 L 93.31,110.75 L 93.39,110.02 L 93.53,108.39 L 93.72,105.63 L 94.29,96.00 L 83.15,96.00 L 72.00,96.00 L 72.00,100.84 L 72.00,102.37 L 71.60,105.61 L 71.35,107.23 L 70.54,110.34 L 70.10,111.84 L 69.02,114.36 L 68.73,114.94 L 68.14,115.90 L 67.22,117.01 L 66.16,118.00 L 63.83,119.52 L 62.64,120.20 L 60.14,121.12 L 58.87,121.51 L 56.28,121.84 L 54.99,121.94 L 52.42,121.71 L 51.15,121.52 L 48.71,120.73 L 47.51,120.27 L 45.28,118.94 L 44.20,118.21 L 42.29,116.36 L 39.90,113.00 L 39.77,112.76 L 39.53,111.98 L 39.42,111.54 L 39.22,110.29 L 39.13,109.60 L 38.96,107.81 L 38.88,106.83 L 38.74,104.40 L 38.68,103.10 L 38.56,99.96 L 38.50,98.29 L 38.41,94.35 L 38.36,92.27 L 38.28,87.45 L 38.17,79.15 L 38.15,77.41 L 38.11,74.22 L 38.10,72.66 L 38.07,69.80 L 38.06,68.42 L 38.04,65.88 L 38.04,64.65 L 38.03,62.40 L 38.03,60.23 L 38.06,56.66 L 38.08,55.00 L 38.16,52.31 L 38.20,51.06 L 38.34,49.08 L 38.42,48.16 L 38.62,46.68 L 38.73,45.99 L 39.01,44.85 L 39.52,43.31 L 39.83,42.51 L 40.50,41.11 L 40.85,40.45 L 41.64,39.30 L 42.06,38.77 L 43.01,37.86 L 43.51,37.44 L 44.65,36.75 L 45.25,36.43 L 46.64,35.94 L 47.36,35.72 L 49.02,35.40 L 49.89,35.26 L 51.86,35.10 L 55.22,35.00 L 56.12,35.00 L 57.63,35.02 L 58.35,35.03 L 59.55,35.08 L 60.69,35.14 L 62.31,35.47 L 63.06,35.67 L 64.33,36.40 L 66.47,38.11 L 67.23,38.77 L 68.41,40.03 L 68.95,40.66 L 69.80,41.99 L 70.18,42.69 L 70.80,44.30 L 71.59,47.25 L 71.61,47.35 L 71.66,48.01 L 71.69,48.41 L 71.74,49.54 L 71.88,54.00 L 72.00,60.00 L 82.61,60.00 L 93.21,60.00 L 92.82,48.25 L 92.76,46.53 L 92.61,43.59 L 92.52,42.19 L 92.28,39.79 L 92.14,38.65 L 91.75,36.67 L 91.53,35.72 L 90.95,34.02 L 90.62,33.20 L 89.79,31.66 L 89.34,30.90 L 88.21,29.38 L 87.60,28.62 L 86.12,27.00 L 83.45,24.30 L 82.62,23.50 L 81.13,22.11 L 80.40,21.45 L 79.05,20.33 L 77.73,19.26 L 75.22,17.76 L 73.95,17.09 L 71.11,16.15 L 70.36,15.93 L 68.69,15.56 L 65.88,15.05 L 63.60,14.68 L 59.20,14.25 L 57.04,14.09 L 52.89,14.08 L 50.85,14.13 L 46.98,14.52 L 45.07,14.77 L 41.48,15.58 L 39.73,16.03 L 36.45,17.23 L 34.85,17.88 L 31.89,19.48 L 30.46,20.33 L 27.85,22.32 L 24.35,25.74 L 23.47,26.76 L 21.74,29.42 L 20.90,30.84 L 19.36,34.08 L 18.63,35.74 L 17.41,39.24 L 16.09,44.43 L 16.01,44.90 L 15.85,46.29 L 15.78,47.05 L 15.64,48.98 L 15.58,50.01 L 15.46,52.40 L 15.41,53.64 L 15.32,56.41 L 15.27,57.84 L 15.20,60.92 L 15.17,62.49 L 15.12,65.80 L 15.07,69.15 L 15.04,76.21 L 15.04,79.75 L 15.10,86.72 L 15.14,90.13 L 15.29,96.38 L 15.33,97.87 L 15.43,100.61 L 15.48,101.93 L 15.60,104.28 L 15.67,105.39 L 15.81,107.27 L 16.05,109.47 L 16.35,111.56 L 17.34,115.51 L 17.89,117.44 L 19.37,121.05 L 20.17,122.80 L 22.11,126.04 L 23.14,127.61 L 25.52,130.45 L 26.77,131.82 L 29.57,134.23 L 31.02,135.39 L 34.22,137.36 L 35.86,138.29 L 39.43,139.78 L 45.17,141.47 L 46.19,141.69 L 47.97,142.05 L 48.82,142.22 L 50.32,142.47 L 51.77,142.69 L 54.26,142.81 L 55.51,142.81 L 58.21,142.49 L 58.94,142.38 L 60.57,142.08 L 61.42,141.92 M 246.35,140.33 L 248.37,139.74 L 252.01,138.22 L 253.77,137.40 L 256.92,135.41 L 258.42,134.36 L 261.07,131.91 L 262.32,130.62 L 264.46,127.71 L 265.47,126.20 L 267.10,122.82 L 267.86,121.07 L 268.99,117.23 L 269.49,115.25 L 270.12,110.95 L 270.50,103.98 L 270.50,102.89 L 270.48,101.03 L 270.47,100.15 L 270.41,98.63 L 270.34,97.18 L 269.99,94.91 L 269.77,93.82 L 269.01,91.69 L 268.79,91.14 L 268.24,89.92 L 267.24,87.84 L 266.72,86.78 L 265.58,84.83 L 264.99,83.88 L 263.66,82.11 L 262.96,81.24 L 261.33,79.58 L 260.47,78.76 L 258.45,77.13 L 257.38,76.32 L 254.88,74.66 L 253.56,73.82 L 250.47,72.04 L 248.85,71.14 L 245.08,69.18 L 238.57,65.96 L 236.56,65.00 L 233.15,63.28 L 231.54,62.45 L 228.85,60.95 L 227.59,60.22 L 225.55,58.85 L 224.60,58.17 L 223.12,56.86 L 222.44,56.20 L 221.44,54.87 L 220.99,54.19 L 220.38,52.74 L 220.11,52.00 L 219.82,50.37 L 219.63,47.63 L 219.62,46.72 L 219.65,45.14 L 219.68,44.38 L 219.82,43.05 L 219.99,41.78 L 220.69,39.87 L 221.11,38.99 L 222.44,37.65 L 225.29,35.96 L 226.62,35.35 L 229.19,34.59 L 230.47,34.29 L 232.99,34.14 L 234.25,34.14 L 236.78,34.58 L 240.67,35.94 L 241.82,36.46 L 243.62,37.63 L 244.44,38.24 L 245.67,39.71 L 246.22,40.49 L 246.97,42.40 L 247.69,45.94 L 247.78,46.70 L 247.94,47.96 L 248.03,48.54 L 248.23,49.47 L 248.35,49.90 L 248.68,50.55 L 248.86,50.85 L 249.39,51.27 L 249.68,51.46 L 250.49,51.70 L 250.93,51.80 L 252.09,51.92 L 252.72,51.96 L 254.32,51.99 L 257.28,52.00 L 258.69,52.00 L 261.05,51.95 L 262.16,51.92 L 263.95,51.75 L 264.78,51.65 L 266.08,51.32 L 266.67,51.12 L 267.53,50.57 L 267.92,50.25 L 268.42,49.41 L 268.64,48.95 L 268.85,47.78 L 268.92,47.14 L 268.91,45.57 L 268.70,42.72 L 268.51,40.62 L 267.89,37.12 L 267.53,35.45 L 266.47,32.56 L 265.87,31.16 L 264.24,28.55 L 260.99,24.60 L 259.47,22.98 L 256.01,20.31 L 254.21,19.08 L 250.17,17.17 L 248.07,16.30 L 243.39,15.13 L 235.61,14.18 L 234.22,14.11 L 231.62,14.07 L 230.35,14.07 L 227.97,14.17 L 225.65,14.30 L 221.55,15.02 L 219.57,15.45 L 215.93,16.82 L 210.71,19.67 L 209.32,20.58 L 206.65,22.94 L 205.35,24.19 L 203.04,26.98 L 201.95,28.40 L 200.23,31.31 L 198.57,35.50 L 198.46,35.91 L 198.28,37.52 L 198.20,38.42 L 198.06,40.79 L 198.00,42.04 L 197.92,44.86 L 197.89,49.29 L 197.89,50.94 L 197.99,53.84 L 198.05,55.23 L 198.29,57.68 L 198.43,58.86 L 198.84,60.97 L 199.07,61.99 L 199.69,63.85 L 200.02,64.75 L 200.89,66.45 L 201.36,67.29 L 202.50,68.93 L 203.12,69.75 L 204.58,71.43 L 207.18,74.08 L 208.19,75.06 L 210.41,76.88 L 211.58,77.78 L 214.37,79.59 L 215.12,80.05 L 216.79,81.01 L 217.66,81.50 L 219.58,82.53 L 220.58,83.06 L 222.82,84.19 L 226.56,86.02 L 228.49,86.96 L 232.26,88.87 L 234.10,89.81 L 237.41,91.60 L 238.20,92.02 L 239.60,92.82 L 240.28,93.21 L 241.44,93.90 L 241.99,94.23 L 242.86,94.80 L 243.79,95.47 L 244.52,96.09 L 245.75,97.53 L 246.32,98.28 L 247.22,99.92 L 247.62,100.77 L 248.19,102.56 L 248.43,103.47 L 248.66,105.34 L 248.73,106.29 L 248.62,108.18 L 248.52,109.12 L 248.05,110.96 L 247.78,111.87 L 246.96,113.61 L 245.34,116.01 L 244.69,116.78 L 243.31,118.10 L 242.60,118.73 L 241.12,119.75 L 240.37,120.23 L 238.81,120.95 L 238.02,121.27 L 236.39,121.69 L 235.57,121.86 L 233.88,121.97 L 233.02,121.98 L 231.29,121.78 L 230.42,121.64 L 228.65,121.12 L 225.98,119.99 L 224.86,119.42 L 222.99,117.94 L 222.12,117.15 L 220.73,115.18 L 220.09,114.12 L 219.13,111.59 L 218.13,107.10 L 217.48,102.50 L 206.59,102.21 L 195.70,101.93 L 196.33,109.40 L 196.47,111.08 L 197.00,114.27 L 197.30,115.83 L 198.15,118.76 L 198.62,120.19 L 199.80,122.87 L 200.43,124.18 L 201.93,126.62 L 202.73,127.81 L 204.56,130.01 L 205.52,131.08 L 207.69,133.04 L 208.82,133.99 L 211.32,135.72 L 215.45,138.05 L 216.75,138.69 L 219.28,139.76 L 220.53,140.26 L 223.00,141.05 L 224.22,141.41 L 226.67,141.93 L 227.89,142.16 L 230.35,142.41 L 231.58,142.50 L 234.10,142.48 L 235.37,142.44 L 237.98,142.15 L 239.30,141.98 L 242.04,141.43 L 243.44,141.13 M 414.07,140.00 L 414.26,139.72 L 414.54,138.48 L 414.66,137.77 L 414.80,135.87 L 414.86,134.87 L 414.88,132.57 L 414.89,131.40 L 414.81,128.97 L 414.75,127.76 L 414.58,125.44 L 414.48,124.32 L 414.22,122.38 L 414.08,121.49 L 413.75,120.18 L 413.19,119.23 L 412.82,119.11 L 412.01,118.26 L 411.02,116.55 L 410.83,116.04 L 410.29,115.33 L 409.96,115.01 L 408.81,114.57 L 408.46,114.47 L 407.58,114.30 L 407.10,114.22 L 405.90,114.07 L 405.26,114.00 L 403.70,113.87 L 400.89,113.65 L 400.25,113.61 L 398.41,113.53 L 397.41,113.50 L 394.91,113.45 L 393.59,113.43 L 390.54,113.40 L 388.96,113.39 L 385.47,113.38 L 383.68,113.38 L 379.86,113.40 L 377.92,113.41 L 373.88,113.45 L 361.42,113.66 L 331.23,114.32 L 330.61,118.80 L 330.27,121.33 L 330.00,125.91 L 329.96,127.00 L 330.00,129.00 L 330.03,129.97 L 330.19,131.69 L 330.28,132.51 L 330.56,133.91 L 330.72,134.56 L 331.11,135.58 L 331.32,136.04 L 331.83,136.63 L 332.71,137.00 L 333.12,137.00 L 333.90,137.57 L 334.70,138.94 L 334.84,139.51 L 335.81,140.46 L 337.85,141.33 L 338.03,141.36 L 339.12,141.41 L 339.78,141.44 L 341.74,141.49 L 342.82,141.51 L 345.55,141.55 L 347.00,141.57 L 350.38,141.60 L 352.15,141.61 L 356.08,141.63 L 358.11,141.64 L 362.49,141.65 L 364.72,141.65 L 369.44,141.65 L 376.79,141.63 L 378.73,141.63 L 382.31,141.61 L 384.06,141.60 L 387.27,141.58 L 388.83,141.57 L 391.68,141.55 L 393.07,141.54 L 395.59,141.51 L 396.81,141.50 L 399.02,141.46 L 400.09,141.44 L 402.00,141.40 L 403.85,141.36 L 406.75,141.26 L 408.08,141.20 L 410.09,141.05 L 410.99,140.97 L 412.25,140.78 L 412.81,140.68 L 413.50,140.43 L 413.79,140.30 M 178.79,129.77 L 179.07,120.04 L 158.29,119.77 L 137.50,119.50 L 137.23,103.25 L 136.95,87.00 L 154.34,87.00 L 171.74,87.00 L 172.36,83.25 L 172.61,81.72 L 172.88,78.50 L 172.97,76.90 L 172.94,73.91 L 172.89,72.49 L 172.57,70.23 L 172.48,69.74 L 172.23,68.96 L 171.80,68.20 L 171.70,68.10 L 171.27,67.91 L 171.02,67.82 L 170.28,67.66 L 169.88,67.58 L 168.83,67.45 L 168.26,67.39 L 166.89,67.29 L 166.15,67.24 L 164.43,67.16 L 163.52,67.12 L 161.44,67.07 L 160.36,67.05 L 157.91,67.02 L 153.80,67.00 L 137.00,67.00 L 137.00,51.50 L 137.00,36.00 L 157.38,36.00 L 177.75,36.00 L 178.38,32.87 L 178.46,32.45 L 178.62,31.12 L 178.69,30.40 L 178.82,28.65 L 179.00,22.87 L 179.00,16.00 L 147.00,16.00 L 115.00,16.00 L 115.00,78.01 L 115.00,140.03 L 146.75,139.76 L 178.50,139.50 L 178.79,129.77 M 312.00,78.00 L 312.00,16.00 L 301.50,16.00 L 291.00,16.00 L 291.00,78.00 L 291.00,140.00 L 301.50,140.00 L 312.00,140.00 L 312.00,78.00 M 464.73,127.75 L 465.84,126.20 L 468.35,122.65 L 469.64,120.83 L 472.28,117.07 L 473.58,115.20 L 476.03,111.68 L 476.61,110.84 L 477.69,109.28 L 479.13,107.18 L 485.50,97.85 L 488.33,101.18 L 488.71,101.63 L 489.76,102.98 L 490.32,103.71 L 491.59,105.43 L 495.47,111.00 L 496.71,112.88 L 499.05,116.37 L 500.20,118.07 L 502.32,121.20 L 503.36,122.72 L 505.26,125.46 L 506.18,126.79 L 507.84,129.13 L 508.64,130.26 L 510.05,132.18 L 510.72,133.08 L 511.85,134.57 L 512.39,135.25 L 513.24,136.27 L 514.18,137.25 L 514.59,137.60 L 515.58,138.11 L 516.13,138.33 L 517.61,138.64 L 518.43,138.78 L 520.64,138.92 L 521.25,138.95 L 522.65,138.98 L 525.05,139.00 L 526.30,139.00 L 528.58,138.92 L 529.67,138.87 L 531.52,138.70 L 532.37,138.61 L 533.59,138.38 L 534.52,137.97 L 534.60,137.84 L 534.67,137.52 L 534.68,137.34 L 534.53,136.80 L 534.42,136.48 L 533.93,135.55 L 533.64,135.02 L 532.72,133.52 L 532.19,132.69 L 530.72,130.46 L 530.32,129.85 L 529.39,128.46 L 528.90,127.74 L 527.79,126.11 L 527.22,125.26 L 525.92,123.36 L 525.25,122.38 L 523.76,120.20 L 522.99,119.08 L 521.28,116.59 L 518.47,112.50 L 517.14,110.57 L 514.29,106.42 L 512.86,104.33 L 510.05,100.22 L 508.68,98.21 L 506.23,94.62 L 505.66,93.78 L 504.64,92.28 L 503.34,90.35 L 497.84,82.21 L 507.26,67.85 L 508.56,65.88 L 511.57,61.31 L 513.11,58.97 L 516.32,54.11 L 517.91,51.69 L 520.94,47.12 L 521.67,46.02 L 523.02,43.98 L 524.85,41.22 L 533.01,28.93 L 521.80,29.22 L 510.60,29.50 L 503.55,40.09 L 501.61,43.00 L 497.33,49.48 L 496.31,51.03 L 494.48,53.82 L 494.05,54.48 L 493.28,55.66 L 492.29,57.18 L 491.30,58.72 L 489.51,61.26 L 488.66,62.44 L 487.22,64.17 L 486.56,64.93 L 485.56,65.76 L 485.35,65.91 L 485.01,66.02 L 484.66,65.89 L 484.62,65.84 L 484.21,65.21 L 483.97,64.83 L 483.23,63.65 L 482.82,63.01 L 481.84,61.44 L 480.20,58.81 L 479.91,58.35 L 479.21,57.23 L 478.84,56.64 L 477.99,55.30 L 477.11,53.91 L 475.04,50.69 L 468.47,40.56 L 460.91,29.00 L 450.45,29.00 L 448.82,29.00 L 446.06,29.07 L 444.77,29.12 L 442.77,29.27 L 441.87,29.36 L 440.71,29.60 L 440.00,30.04 L 440.00,30.11 L 440.29,30.68 L 440.48,31.03 L 441.12,32.11 L 441.48,32.71 L 442.43,34.25 L 442.94,35.07 L 444.16,37.00 L 444.80,38.01 L 446.26,40.27 L 447.02,41.44 L 448.67,43.97 L 454.17,52.29 L 456.12,55.20 L 459.89,60.89 L 460.80,62.27 L 462.55,64.92 L 463.40,66.21 L 464.98,68.62 L 465.74,69.79 L 467.11,71.90 L 467.77,72.91 L 468.89,74.64 L 469.41,75.46 L 470.22,76.75 L 471.06,78.11 L 473.78,82.71 L 464.86,95.61 L 463.66,97.34 L 461.38,100.65 L 460.26,102.28 L 458.14,105.36 L 457.10,106.88 L 455.14,109.75 L 454.18,111.15 L 452.38,113.81 L 451.50,115.11 L 449.87,117.54 L 449.07,118.73 L 447.59,120.96 L 446.14,123.13 L 443.73,126.83 L 442.60,128.58 L 440.80,131.45 L 439.98,132.78 L 438.79,134.83 L 438.27,135.75 L 437.69,137.00 L 437.48,137.96 L 437.57,138.11 L 438.43,138.38 L 438.96,138.50 L 440.58,138.70 L 441.46,138.80 L 443.65,138.92 L 447.41,139.00 L 456.70,139.00 L 464.73,127.75 Z" fill="rgb(254,254,254)"/>
</g>
</svg>